<?xml version="1.0" encoding="UTF-8"?>
<svg width="1737px" height="1712px" viewBox="0 0 1737 1712" version="1.1" xmlns="http://www.w3.org/2000/svg" xmlns:xlink="http://www.w3.org/1999/xlink">
    <!-- Generator: Sketch 53.2 (72643) - https://sketchapp.com -->
    <title>Artboard</title>
    <desc>Created with Sketch.</desc>
    <g id="Artboard" stroke="none" stroke-width="1" fill="none" fill-rule="evenodd">
        <rect fill="#FFFFFF" x="0" y="0" width="1737" height="1712"></rect>
        <g id="Group-2-Copy" transform="translate(-470.000000, 434.000000)" fill="#2A2A2A">
            <text id="Certificate.com" font-family="LucidaGrande-Bold, Lucida Grande" font-size="160" font-weight="bold">
                <tspan x="711.1875" y="687.4">Certify</tspan>
            </text>
            <path d="M1463.61815,59.3 C1461.69823,59.3 1459.7783,58.8198381 1458.09837,57.8595142 C1412.02016,34.091498 1372.1817,24.0080972 1324.42356,24.0080972 C1276.9054,24.0080972 1231.78715,35.2919028 1190.74875,57.8595142 C1184.98897,60.9805668 1177.78925,58.8198381 1174.42938,53.0578947 C1171.3095,47.2959514 1173.46942,39.8534413 1179.22919,36.7323887 C1223.86746,12.4842105 1272.82556,1.45661261e-12 1324.42356,1.45661261e-12 C1375.54157,1.45661261e-12 1420.17984,11.2838057 1469.13794,36.4923077 C1475.13771,39.6133603 1477.29762,46.8157895 1474.17774,52.5777328 C1472.01783,56.8991903 1467.93799,59.3 1463.61815,59.3 L1463.61815,59.3 Z" id="Path" stroke="#2A2A2A" stroke-width="6" fill-rule="nonzero"></path>
            <path d="M1120.17549,185.3 C1117.77555,185.3 1115.37561,184.580115 1113.21567,183.140346 C1107.69582,179.30096 1106.49585,171.862151 1110.33575,166.343034 C1134.09511,132.748411 1164.3343,106.352635 1200.33333,87.8755923 C1275.6913,49.0018139 1372.16871,48.7618523 1447.76667,87.6356308 C1483.7657,106.112674 1514.00489,132.268487 1537.76425,165.623149 C1541.60415,170.902304 1540.40418,178.581075 1534.88433,182.420461 C1529.36448,186.259846 1521.92468,185.060038 1518.08478,179.540922 C1496.48536,149.305761 1469.1261,125.549563 1436.72697,108.992213 C1367.84882,73.7178582 1279.77119,73.7178582 1211.13304,109.232174 C1178.49392,126.029486 1151.13465,150.025646 1129.53523,180.260807 C1127.61529,183.620269 1124.01538,185.3 1120.17549,185.3 L1120.17549,185.3 Z" id="Path" stroke="#2A2A2A" stroke-width="6" fill-rule="nonzero"></path>
            <path d="M1270.14602,475 C1267.0258,475 1263.90557,473.79992 1261.74541,471.39976 C1240.86387,450.518371 1229.58304,437.077476 1213.50186,408.035543 C1196.94064,378.513578 1188.3,342.511182 1188.3,303.86861 C1188.3,232.583866 1249.26449,174.5 1324.15,174.5 C1399.03551,174.5 1460,232.583866 1460,303.86861 C1460,310.589058 1454.71961,315.869409 1447.99912,315.869409 C1441.27862,315.869409 1435.99823,310.589058 1435.99823,303.86861 C1435.99823,245.784744 1385.83454,198.501597 1324.15,198.501597 C1262.46546,198.501597 1212.30177,245.784744 1212.30177,303.86861 C1212.30177,338.430911 1219.98233,370.353035 1234.62341,396.27476 C1249.98454,423.876597 1260.54532,435.63738 1279.02668,454.358626 C1283.58701,459.158946 1283.58701,466.599441 1279.02668,471.39976 C1276.38648,473.79992 1273.26625,475 1270.14602,475 Z" id="Path" stroke="#2A2A2A" stroke-width="6" fill-rule="nonzero"></path>
            <path d="M1442.22011,430.5 C1413.66009,430.5 1388.46007,423.301038 1367.82005,409.14308 C1332.06002,384.906574 1310.7,345.552249 1310.7,303.79827 C1310.7,297.079239 1315.98,291.8 1322.70001,291.8 C1329.42002,291.8 1334.70002,297.079239 1334.70002,303.79827 C1334.70002,337.633391 1351.98003,369.548789 1381.26006,389.225952 C1398.30007,400.744291 1418.22009,406.263495 1442.22011,406.263495 C1447.98012,406.263495 1457.58012,405.543599 1467.18013,403.863841 C1473.66014,402.664014 1479.90014,406.983391 1481.10014,413.702422 C1482.30015,420.181488 1477.98014,426.420588 1471.26014,427.620415 C1457.58012,430.260035 1445.58011,430.5 1442.22011,430.5 L1442.22011,430.5 Z" id="Path" stroke="#2A2A2A" stroke-width="6" fill-rule="nonzero"></path>
            <path d="M1393.9871,480 C1393.02701,480 1391.82689,479.760013 1390.86679,479.520026 C1352.70292,468.960606 1327.74039,454.801383 1301.57774,429.122793 C1267.97433,395.764625 1249.49246,351.367062 1249.49246,303.849671 C1249.49246,264.971805 1282.61582,233.293544 1323.41995,233.293544 C1364.22409,233.293544 1397.34745,264.971805 1397.34745,303.849671 C1397.34745,329.528261 1419.66971,350.407115 1447.27251,350.407115 C1474.8753,350.407115 1497.19757,329.528261 1497.19757,303.849671 C1497.19757,213.374638 1419.18966,139.938669 1323.17993,139.938669 C1255.01302,139.938669 1192.60669,177.856588 1164.52384,236.65336 C1155.1629,256.092292 1150.36241,278.891041 1150.36241,303.849671 C1150.36241,322.568643 1152.04258,352.087022 1166.44404,390.484914 C1168.84428,396.724572 1165.72397,403.68419 1159.48333,405.844071 C1153.2427,408.243939 1146.282,404.884124 1144.12178,398.884453 C1132.36058,367.446179 1126.6,336.247892 1126.6,303.849671 C1126.6,275.051252 1132.12056,248.892688 1142.92165,226.093939 C1174.84489,159.137615 1245.65207,115.7 1323.17993,115.7 C1432.391,115.7 1521.2,199.935375 1521.2,303.609684 C1521.2,342.487549 1488.07664,374.16581 1447.27251,374.16581 C1406.46837,374.16581 1373.34501,342.487549 1373.34501,303.609684 C1373.34501,277.931094 1351.02275,257.05224 1323.41995,257.05224 C1295.81715,257.05224 1273.49489,277.931094 1273.49489,303.609684 C1273.49489,344.647431 1289.3365,383.045323 1318.37944,411.843742 C1341.18175,434.402503 1363.02397,446.881818 1396.8674,456.241304 C1403.34805,457.921212 1406.94842,464.640843 1405.26825,470.880501 C1404.06813,476.400198 1399.02762,480 1393.9871,480 L1393.9871,480 Z" id="Path" stroke="#2A2A2A" stroke-width="6" fill-rule="nonzero"></path>
        </g>
    </g>
</svg>