<?xml version="1.0" encoding="UTF-8"?>
<svg width="438px" height="486px" viewBox="0 0 438 486" version="1.1" xmlns="http://www.w3.org/2000/svg" xmlns:xlink="http://www.w3.org/1999/xlink">
    <!-- Generator: Sketch 53.2 (72643) - https://sketchapp.com -->
    <title>Group</title>
    <desc>Created with Sketch.</desc>
    <g id="Page-1" stroke="none" stroke-width="1" fill="none" fill-rule="evenodd">
        <g id="Artboard-Copy" transform="translate(-302.000000, -649.000000)" fill="#2A2A2A" fill-rule="nonzero" stroke="#2A2A2A" stroke-width="6">
            <g id="Group" transform="translate(305.000000, 652.000000)">
                <path d="M355.518154,59.3 C353.598229,59.3 351.678303,58.8198381 349.998368,57.8595142 C303.920157,34.091498 264.081703,24.0080972 216.323557,24.0080972 C168.805401,24.0080972 123.687153,35.2919028 82.6487457,57.8595142 C76.8889692,60.9805668 69.6892487,58.8198381 66.3293791,53.0578947 C63.2095002,47.2959514 65.3694164,39.8534413 71.1291928,36.7323887 C115.76746,12.4842105 164.72556,1.45661261e-12 216.323557,1.45661261e-12 C267.441573,1.45661261e-12 312.07984,11.2838057 361.03794,36.4923077 C367.037707,39.6133603 369.197623,46.8157895 366.077744,52.5777328 C363.917828,56.8991903 359.837986,59.3 355.518154,59.3 L355.518154,59.3 Z" id="Path-Copy"></path>
                <path d="M12.0754856,185.3 C9.67555019,185.3 7.27561477,184.580115 5.11567288,183.140346 C-0.404178595,179.30096 -1.60414631,171.862151 2.23575037,166.343034 C25.9951111,132.748411 56.2342974,106.352635 92.2333288,87.8755923 C167.591301,49.0018139 264.068705,48.7618523 339.666671,87.6356308 C375.665703,106.112674 405.904889,132.268487 429.66425,165.623149 C433.504146,170.902304 432.304179,178.581075 426.784327,182.420461 C421.264476,186.259846 413.824676,185.060038 409.984779,179.540922 C388.38536,149.305761 361.026096,125.549563 328.626968,108.992213 C259.748822,73.7178582 171.671191,73.7178582 103.033038,109.232174 C70.3939165,126.029486 43.0346526,150.025646 21.4352338,180.260807 C19.5152854,183.620269 15.9153823,185.3 12.0754856,185.3 L12.0754856,185.3 Z" id="Path-Copy-2"></path>
                <path d="M162.046025,475 C158.925795,475 155.805565,473.79992 153.645406,471.39976 C132.763869,450.518371 121.483039,437.077476 105.401855,408.035543 C88.840636,378.513578 80.2,342.511182 80.2,303.86861 C80.2,232.583866 141.164488,174.5 216.05,174.5 C290.935512,174.5 351.9,232.583866 351.9,303.86861 C351.9,310.589058 346.619611,315.869409 339.899117,315.869409 C333.178622,315.869409 327.898233,310.589058 327.898233,303.86861 C327.898233,245.784744 277.734541,198.501597 216.05,198.501597 C154.365459,198.501597 104.201767,245.784744 104.201767,303.86861 C104.201767,338.430911 111.882332,370.353035 126.52341,396.27476 C141.884541,423.876597 152.445318,435.63738 170.926678,454.358626 C175.487014,459.158946 175.487014,466.599441 170.926678,471.39976 C168.286484,473.79992 165.166254,475 162.046025,475 Z" id="Path-Copy-3"></path>
                <path d="M334.120111,430.5 C305.560087,430.5 280.360066,423.301038 259.720048,409.14308 C223.960018,384.906574 202.6,345.552249 202.6,303.79827 C202.6,297.079239 207.880004,291.8 214.60001,291.8 C221.320016,291.8 226.60002,297.079239 226.60002,303.79827 C226.60002,337.633391 243.880035,369.548789 273.16006,389.225952 C290.200074,400.744291 310.120091,406.263495 334.120111,406.263495 C339.880116,406.263495 349.480124,405.543599 359.080132,403.863841 C365.560138,402.664014 371.800143,406.983391 373.000144,413.702422 C374.200145,420.181488 369.880141,426.420588 363.160136,427.620415 C349.480124,430.260035 337.480114,430.5 334.120111,430.5 L334.120111,430.5 Z" id="Path-Copy-4"></path>
                <path d="M285.887105,480 C284.927007,480 283.726886,479.760013 282.766788,479.520026 C244.60292,468.960606 219.640389,454.801383 193.477737,429.122793 C159.874331,395.764625 141.392457,351.367062 141.392457,303.849671 C141.392457,264.971805 174.515815,233.293544 215.319951,233.293544 C256.124088,233.293544 289.247445,264.971805 289.247445,303.849671 C289.247445,329.528261 311.569708,350.407115 339.172506,350.407115 C366.775304,350.407115 389.097567,329.528261 389.097567,303.849671 C389.097567,213.374638 311.089659,139.938669 215.079927,139.938669 C146.913017,139.938669 84.506691,177.856588 56.4238443,236.65336 C47.0628954,256.092292 42.2624088,278.891041 42.2624088,303.849671 C42.2624088,322.568643 43.9425791,352.087022 58.3440389,390.484914 C60.7442822,396.724572 57.6239659,403.68419 51.3833333,405.844071 C45.1427007,408.243939 38.1819951,404.884124 36.0217762,398.884453 C24.2605839,367.446179 18.5,336.247892 18.5,303.849671 C18.5,275.051252 24.0205596,248.892688 34.8216545,226.093939 C66.7448905,159.137615 137.552068,115.7 215.079927,115.7 C324.290998,115.7 413.1,199.935375 413.1,303.609684 C413.1,342.487549 379.976642,374.16581 339.172506,374.16581 C298.36837,374.16581 265.245012,342.487549 265.245012,303.609684 C265.245012,277.931094 242.922749,257.05224 215.319951,257.05224 C187.717153,257.05224 165.394891,277.931094 165.394891,303.609684 C165.394891,344.647431 181.236496,383.045323 210.27944,411.843742 C233.081752,434.402503 254.923966,446.881818 288.767397,456.241304 C295.248054,457.921212 298.848418,464.640843 297.168248,470.880501 C295.968127,476.400198 290.927616,480 285.887105,480 L285.887105,480 Z" id="Path-Copy-5"></path>
            </g>
        </g>
    </g>
</svg>