<?xml version="1.0" encoding="UTF-8"?>
<svg version="1.1" viewBox="0 0 869 973" xmlns="http://www.w3.org/2000/svg" xmlns:xlink="http://www.w3.org/1999/xlink">
<title>Group 7</title>
<desc>Created with Sketch.</desc>
<defs>
<path id="b" d="m0.2 1.1647s1.3848 3.244 5.3436 2.5247c2.8185-0.51236 1.9297-3.4033 1.9297-3.4033l-7.2733 0.87855z"/>
<linearGradient id="f" x1="50%" x2="50%" y1="100%" y2="3.0616e-15%">
<stop stop-color="#0D83F9" offset="0"/>
<stop stop-color="#80A6D7" offset="1"/>
</linearGradient>
<path id="a" d="m0.2 1.1647s1.3848 3.244 5.3436 2.5247c2.8185-0.51236 1.9297-3.4033 1.9297-3.4033l-7.2733 0.87855z"/>
<linearGradient id="e" x1="50%" x2="50%" y2="100%">
<stop stop-color="#EAF9FD" offset="0"/>
<stop stop-color="#006C97" offset="1"/>
</linearGradient>
</defs>
<g fill="none" fill-rule="evenodd">
<circle cx="440" cy="458" r="401" fill="#F6E3D2"/>
<g transform="translate(24 533)">
<path d="m56 153.24c0 84.634 70.579 153.24 157.65 153.24 87.063 0 157.64-68.608 157.64-153.24 0-84.633-70.579-153.24-157.64-153.24-87.067 0-157.65 68.607-157.65 153.24" fill="#F74E6B"/>
<path d="m401.68 335.56c0 3.217-86.506 5.829-193.22 5.829-106.71 0-193.21-2.612-193.21-5.829 0-3.225 86.505-5.831 193.21-5.831 106.71 0 193.22 2.606 193.22 5.831" fill="#F6E3D2"/>
<path d="m195.22 67.52s-13.151 17.817-11.312 37.363c1.839 19.548 29.8 14.611 35.49 13.987 5.693-0.624 12.005-52.328-8.225-53.446-20.23-1.12-15.953 2.096-15.953 2.096" fill="#19365E"/>
<polygon points="221.77 287.91 217.78 304.71 211.8 304.68 211.58 287.91" fill="#E39963"/>
<polygon points="196.72 288.56 185.36 304.66 180.94 298.97 187.77 286.35" fill="#E39963"/>
<path d="m200.95 107.1c-0.048 0.022 4.793 2.539 8.437 1.54 3.426-0.931 5.665-5.377 5.616-5.388-1.45-0.289-1.868-2.281-1.838-10.849l-0.654 0.129-11.03 2.184s0.251 3.469 0.258 6.74c7e-3 2.747-0.159 5.351-0.789 5.644" fill="#FACCAC"/>
<path d="m201.48 94.718s0.25 3.469 0.258 6.74c6.171-0.174 9.434-5.804 10.771-8.925l-11.029 2.185z" fill="#D68D5C"/>
<path d="m213.65 91.332s3.234-5.111 4.011-9.479c0.553-3.123-1.034-14.688-12.657-13.02 0 0-3.375 0.332-6.548 2.473-2.523 1.706-6.165 5.384-2.093 15.476l1.058 3.409 16.229 1.141z" fill="#19365E"/>
<path d="m180.18 299.65 5.763-1.008 6.238-1.092s11.019-18.896 13.767-46.107c0.065-0.633 0.139-1.275 0.223-1.925 1.745-13.722 7.531-31.692 9.321-47.242 0.284-2.479 0.519-4.802 0.708-6.997 0.06-0.7 0.118-1.391 0.168-2.069 0.998-13.024 0.353-21.309-0.484-30.126l-31.332 10.053s3.297 57.436-4.372 126.51" fill="#547CBE"/>
<path d="m189.68 148.05c0.088 16.846-2.473 24.074-2.473 24.074s15.159 7.7 33.174 2.032c0.211-0.067 14.917-3.422 14.917-3.422-0.302-0.683-2.983-12.038-3.276-12.663-3.805-8.167-6.693-11.749-7.145-14.257-0.835-4.688-0.853-9.54-0.437-14.115 1.099-12.11 4.369-22.164 4.369-22.164-4.909-1.116-9.505-3.079-14.615-4.995-1.174 1.462-4.767 2.995-7.884 2.923-3.588-0.077-4.752-1.612-4.566-3.291-3.824 2.129-6.874 4.138-6.874 4.138-3.251 5.645-9.843 11.128-10.318 19.786-0.12 2.132 5.125 21.482 5.128 21.954" fill="#FEFEFE"/>
<path d="m169.13 123.03c5.194-6.07 18.66-19.236 32.556-20.853l-11.991 23.357s-0.675 4.005-4.224 6.337c-8.696 5.716-19.754 8.24-19.754 8.24s-7.488-3.266-17.726-10.768c-3.212-2.353-8.858-11.333-8.858-11.333l1.524-5.095s9.583 5.357 13.009 6.905c1.951 0.881 6.443 2.984 9.609 4.471 2.014 0.945 4.408 0.428 5.855-1.261" fill="#DDAFAF"/>
<path d="m199.42 97.815s14.603 0.237 14.614-8.858c0.01-9.095 1.902-15.191-7.424-15.73-9.322-0.539-11.137 2.93-11.878 5.965-0.745 3.038 0.89 18.325 4.688 18.623" fill="#FACCAC"/>
<path d="m199.96 73.004s3.998 10.675 10.133 12.25c6.137 1.578 8.798-0.064 8.798-0.064s-4.705-3.74-5.685-10.267c0 0-10.23-6.998-13.246-1.919" fill="#19365E"/>
<path d="m200.95 73.871s-2.986 2.385-3.714 4.699c-0.728 2.315-1.055 7.084-2.446 6.924 0 0-3.012-7.255 0.374-11.358 3.592-4.353 5.786-0.265 5.786-0.265" fill="#19365E"/>
<path d="m217.98 303.77s-0.481 3.329 0.76 6.89c0 0 0.98 4.459-3.409 4.541-4.392 0.083-5.468-0.333-4.971-3.064 0.496-2.734 1.443-7.462 1.443-7.462l6.177-0.905z" fill="#E39963"/>
<path d="m209.95 317.11s0.094 0.056 0.275 0.144h8.592c0.167-0.088 0.244-0.144 0.244-0.144 0.497-2.237-0.316-6.446-0.316-6.446-4.97 4.558-8.08-0.112-8.08-0.112-0.81 1.945-0.715 6.558-0.715 6.558" fill="#C3C7CE"/>
<path d="m170.36 312.53s8.094-8.984 10.578-13.555l6.018 3.084-13.454 12.634-3.146-0.413 4e-3 -1.75z" fill="#E39963"/>
<path d="m165.34 317.19h11.074c1.069-0.799 2.063-2.643 3.301-5.118 0.66-1.322 2.141-2.05 3.665-2.45v7.483h2.298l2.176-7.953c1.43-2.633 0.112-5.022-0.897-7.102-1.172-3e-3 -4.327 0.8-10.306 7.537-1.965 2.211-4.136 3.003-6.289 2.934-0.032 0.019-0.061 0.035-0.089 0.047-3.607 1.62-4.639 3.639-4.933 4.622" fill="#C3C7CE"/>
<path d="m201.75 102.17s-8.448 20.873-8.698 25.096c-0.248 4.224-0.993 69.08-0.993 69.08s0.496 2.981-5.218 1.738c-5.716-1.243-7.207-2.485-7.207-2.485s5.468-40.005 3.976-53.92c-1.49-13.914 11.43-36.61 11.43-36.61l6.71-2.899z" fill="#DDAFAF"/>
<path d="m185.94 298.65 6.238-1.092s11.018-18.896 13.767-46.107c0.065-0.633 0.139-1.276 0.223-1.925 1.745-13.723 7.531-31.692 9.32-47.242 0.285-2.479 0.52-4.802 0.709-6.997 0.06-0.7 0.118-1.391 0.168-2.07l-5.906-2.818s-10.196 27.989-10.113 52.328c0.073 21.14-11.388 48.969-14.406 55.923" fill="#366AB1"/>
<path d="m208.74 245.17c-0.088 11.602 0.498 38.268 2.009 49.31h5.605c3.1 0 4.645-0.047 4.645-0.047 3.79-19.196 6.486-35.079 8.449-48.764 1.609-11.231 3.04-20.862 4.141-29.147 1.109-8.344 1.88-15.328 2.154-21.23 0.043-0.929 0.077-1.834 0.093-2.712 0.016-0.881 0.022-1.739 0.014-2.571l-30.586-2.982c0.384 20.323 3.529 51.403 3.476 58.143" fill="#547CBE"/>
<path d="m216.36 294.48c3.1 0 4.646-0.047 4.646-0.047 3.789-19.195 6.485-35.079 8.448-48.764 1.61-11.231 3.04-20.862 4.141-29.147 1.109-8.344 1.88-15.327 2.155-21.23l-11.224 6.601s7.164 2.529 4.43 21.663c-2.732 19.131-8.79 68.212-12.596 70.924" fill="#366AB1"/>
<path d="m214.92 195.11s2.153 7.785 9.608 6.79c7.455-0.993 18.055-5.465 18.055-5.465s-3.185-10.065-7.147-23.29c-4.796-16.009-10.731-36.649-13.529-49.666-0.786-3.648-1.324-6.694-1.522-8.876l-6.183-12s-9.223 20.696-9.719 25.914c-0.498 5.22 10.437 66.593 10.437 66.593" fill="#DDAFAF"/>
<path d="m215.25 139.45c0.334 8.447 2.32 24.847 20.045 33.626 0.049 0.021 0.095 0.046 0.142 0.067-4.796-16.008-10.731-36.649-13.529-49.666-3.256 4.867-6.84 11.321-6.658 15.973" fill="#A78B88"/>
<path d="m222.36 127.73-8.164-25.135c0.023 0.011 10.31 3.064 15.485 5.676 0 0 3.235 4.17 5.236 13.789 0 0 2.115 23.098-2.607 31.548 0 0-14.908 2.98-38.763-5.219v-5.468s26.09 1.366 31.433 1.988l-2.62-17.179z" fill="#E39963"/>
<path d="m214.2 102.6s15.134 1.066 18.775 9.185c3.646 8.115 4.805 35.116 0.167 43.07 0 0-6.385 1.817-17.68-0.294-0.139-0.026-0.279-0.053-0.418-0.081 0 0-3.603-8.821-0.373-10.561 0 0 9.526 0.498 8.532-2.648-0.993-3.149-9.003-38.671-9.003-38.671" fill="#DDAFAF"/>
<path d="m195.88 148.31-1.199-0.271-3.11 0.044c-2.285 0.032-4.54-0.624-6.513-1.854 0 0-3.122 0.51-5.012 1.379-0.64 0.36-1.263-0.699-0.622-1.108l4.869-1.865-2.78-0.131c-0.692-0.041-1.39 0.055-2.061 0.264l-1.768 0.568c-0.688-0.24-1.106-0.594-0.381-1.282l1.974-0.746c0.564-0.211 1.187-0.335 1.794-0.389l2.828-0.196-3.738-0.688-3.07-0.287c-0.582-0.071-0.721-1.123 0.099-1.19l3.594 0.154 3.353 0.331-5.408-0.96c-0.686-0.241-0.593-1.164 0.029-1.24l2.072 0.107c1.328 0.073 2.655 0.239 3.959 0.495l2.332 0.48-2.599-1.662c-0.629-0.625-0.071-1.239 0.588-1l3.539 1.733c1.518 0.738 2.876 1.781 3.987 3.074l0.733 0.845 5.161 1.24-2.65 4.155z" fill="#E39963"/>
<path d="m129.47 108.16-5.062-2.128c-0.617-0.388-0.322-1.268 0.301-1.203l1.998 0.559c1.279 0.366 2.536 0.816 3.752 1.355l2.169 0.982-2.169-2.195c-0.475-0.744 0.204-1.222 0.795-0.843l3.069 2.468c1.316 1.056 2.413 2.374 3.211 3.879l0.53 0.987 2.405 1.518-1.148 4.299-1.109-0.53-3.043-0.645c-2.235-0.472-4.29-1.609-5.945-3.244 0 0-3.1-3.844 0.246-5.259" fill="#E39963"/>
<polygon points="54.455 330.02 376.13 330.02 376.13 257.09 54.455 256.36" fill="#CD9D6E"/>
<polygon points="54.455 217.1 376.13 217.1 376.13 198.03 54.455 198.03" fill="#CD9D6E"/>
<path d="m391.17 198.03h-360.18c-2.784 0-5.041-2.257-5.041-5.041v-3.667c0-2.783 2.257-5.04 5.04-5.04h360.18c2.784 0 5.041 2.257 5.041 5.041v3.666c0 2.783-2.257 5.041-5.041 5.041" fill="#775547"/>
<path d="m98.085 184.33c-0.033 0.021-0.067 0.039-0.101 0.056l0.031-0.056h0.07z" fill="#5F99A7"/>
<polygon points="56.963 256.36 376.13 257.09 376.13 217.1 56.963 217.1" fill="#775547"/>
<polygon points="105.44 151.21 98.32 184.28 126.06 184.28 132.27 151.21" fill="#6F9AD1"/>
<polygon points="106.39 152.26 99.962 182.13 125.02 182.13 130.62 152.26" fill="#B1CAEA"/>
<path d="m127.34 154.66h-19.073c-0.349 0-0.638 0.289-0.638 0.639s0.289 0.639 0.638 0.639h19.073c0.351 0 0.64-0.289 0.64-0.639s-0.289-0.639-0.64-0.639" fill="#6F9AD1"/>
<path d="m126.37 157.67h-19.073c-0.352 0-0.638 0.288-0.638 0.641 0 0.35 0.286 0.637 0.638 0.637h19.073c0.352 0 0.637-0.287 0.637-0.637 0-0.353-0.285-0.641-0.637-0.641" fill="#6F9AD1"/>
<path d="m125.76 160.56h-19.07c-0.352 0-0.64 0.288-0.64 0.639 0 0.35 0.288 0.64 0.64 0.64h19.07c0.352 0 0.641-0.29 0.641-0.64 0-0.351-0.289-0.639-0.641-0.639" fill="#6F9AD1"/>
<path d="m124.88 166.52h-19.073c-0.352 0-0.638 0.289-0.638 0.641 0 0.35 0.286 0.639 0.638 0.639h19.073c0.349 0 0.636-0.289 0.636-0.639 0-0.352-0.287-0.641-0.636-0.641" fill="#6F9AD1"/>
<path d="m123.9 169.53h-19.073c-0.352 0-0.64 0.287-0.64 0.64 0 0.349 0.288 0.636 0.64 0.636h19.073c0.351 0 0.637-0.287 0.637-0.636 0-0.353-0.286-0.64-0.637-0.64" fill="#6F9AD1"/>
<path d="m123.29 172.42h-19.072c-0.352 0-0.64 0.287-0.64 0.638s0.288 0.639 0.64 0.639h19.072c0.352 0 0.637-0.288 0.637-0.639s-0.285-0.638-0.637-0.638" fill="#6F9AD1"/>
<polygon points="93.63 169.63 89.501 183.32 90.259 183.55 94.388 169.86" fill="#A53E39"/>
<path d="m93.654 183.91c-1.059 0-2.11-0.177-2.194-0.191l0.031-0.18c1.057 0.18 3.871 0.455 4.186-0.431 0.141-0.392 0.01-1.052-0.172-1.971-0.329-1.668-0.827-4.184-0.243-7.699 0.46-2.752 0.119-3.583-0.248-3.797-0.383-0.225-0.9 0.186-0.905 0.189l-0.113-0.142c0.023-0.019 0.62-0.492 1.111-0.204 0.604 0.354 0.719 1.695 0.337 3.986-0.581 3.48-0.087 5.978 0.241 7.632 0.187 0.944 0.322 1.625 0.165 2.067-0.21 0.586-1.205 0.741-2.196 0.741" fill="#B64D41"/>
<path d="m98.575 330.28c0 0.971-0.1 1.648-0.1 1.648h-28.028c0-0.551 0.01-1.108 0.039-1.648 0.317-7.332 1.929-13.481 1.929-13.481l7.014-3.221c0.603 3.613 2.85 5.916 4.801 7.42 0.512 0.407 1.047 0.742 1.602 1.028 0.255 0.141 0.514 0.268 0.78 0.388 0.584 0.266 1.189 0.484 1.791 0.664 2.475 0.749 4.978 0.908 6.728 1.177 2.988 0.462 3.444 3.917 3.444 6.025" fill="#EA5B5B"/>
<path d="m98.575 330.28c0 0.971-0.1 1.648-0.1 1.648h-28.028c0-0.551 0.01-1.108 0.039-1.648h28.089z" fill="#FEFEFE"/>
<path d="m48.979 332.6c-0.07 0.951-0.317 1.653-0.317 1.653h-18.67c-0.237-0.545-0.406-1.087-0.524-1.653-1.839-8.934 8.562-19.865 8.562-19.865l7.017 5.422s-1.529 8.24 1.805 9.993c1.999 1.048 2.256 3.026 2.127 4.45" fill="#EA5B5B"/>
<path d="m28.578 332.6h19.511c-0.07 0.951-0.318 1.653-0.318 1.653h-18.67c-0.236-0.545-0.404-1.087-0.523-1.653" fill="#FEFEFE"/>
<path d="m28.233 307.69c-0.669-19.824-5.422-71.078-5.869-75.666-0.448-4.59-2.196-22.679-2.196-40.438l47.669 1.765c-1.167 10.637 13.158 105.44 13.158 105.44l1.405 17.342-12.03 3.165-1.946-5.329-20.741-99.173-4.321 0.276s0.688 85.717 2.934 89.726l0.162 14.949-16.336 0.781-1.889-12.836z" fill="#2E0C1B"/>
<path d="m70.242 141.26c0.0081199 1.174 0.0081199 2.378 0 3.59 0 2.245-0.029435 4.561-0.063945 6.898-0.01827 1.184-0.037555 2.377-0.06293 3.574-0.055825 2.85-0.12687 5.719-0.21721 8.526-0.035525 1.211-0.072065 2.417-0.10759 3.6-0.11063 3.27-0.23548 6.432-0.35322 9.375-0.05481 1.274-0.1086 2.503-0.16443 3.678-0.10759 2.674-0.22533 5.099-0.32378 7.158-0.072065 1.461-0.13601 2.753-0.19894 3.822-0.11875 2.264-0.19183 3.563-0.19183 3.563s-5.7347 6.077-18.36 8.05c-22.231 3.464-29.829-7.068-29.829-7.068s-0.09135-0.828-0.24461-2.31c-0.1086-0.97-0.23548-2.227-0.38874-3.715-0.19082-1.772-0.39991-3.875-0.63437-6.226-0.11672-1.151-0.23446-2.353-0.35017-3.612-0.25476-2.626-0.52577-5.47-0.80591-8.447-0.10048-1.157-0.20807-2.343-0.30856-3.537-0.21721-2.379-0.42528-4.829-0.62219-7.281-0.1015-1.194-0.20097-2.396-0.29029-3.592-0.21822-2.637-0.40904-5.275-0.58971-7.849-0.07917-1.229-0.16037-2.434-0.23345-3.628-0.18168-2.814-0.32581-5.535-0.44355-8.063-0.05481-1.276-0.09947-2.495-0.12789-3.661-0.080185-2.632-0.10759-4.983-0.053795-6.968 0.03654-1.508 0.10962-2.8 0.23548-3.827 0.13499-1.229 0.3522-2.083 0.63234-2.494 2.164-3.127 6.9456-4.581 16.264-7.147 2.368-0.65 4.9187-1.077 7.6064-1.201 3.6266-0.171 7.0451-0.197 10.183-0.037 8.0956 0.428 14.362 2.121 17.682 6.041 0.09135 0.107 0.18168 0.215 0.27202 0.331 0.44254 0.568 0.80591 1.792 1.0952 3.527 0.29841 1.8 0.52475 4.161 0.67802 6.934 0.072065 1.132 0.12586 2.334 0.16443 3.6 0.088305 2.585 0.14311 5.417 0.15225 8.396" fill="#80A6D7"/>
<path d="m37.369 112.33c-1 0.146-3.118 1.5-3.17 2.513-0.165 3.166 5.919 5.793 11.493 5.346 5.573-0.446 5.584-3.468 4.533-4.976-1.086-1.559-3.564-4.233-12.856-2.883" fill="#FEFEFE"/>
<path d="m49.139 105.95-1.976 11.674s-3.162 1.813-10.508-2.312c0 0 2.993-9.001-0.782-14.923 0 0 0.833-0.017 2.155 0.034 0 0 1.867 6.694 11.111 5.527" fill="#E3B6B6"/>
<path d="m33.534 94.815c-0.4 11.065 15.397 15.823 18.364 10.55 0.95-1.687 1.893-6.379 2.24-9.616 0.081-0.733 0.138-1.475 0.172-2.219 0.224-5.041-0.674-10.056-3.569-11.168-10.081-3.872-16.715-1.118-17.207 12.453" fill="#E3B6B6"/>
<path d="m36.386 94.487s-2.178-2.607-4.238-1.044c-2.059 1.561 1.325 6.352 3.533 6.195 2.208-0.154 0.705-5.151 0.705-5.151" fill="#E9A092"/>
<path d="m32.406 165.23c2.359-0.038 3.695 10.825-0.922 11.966 0 0-5.535-11.859 0.922-11.966" fill="#C86F31"/>
<path d="m32.302 175.03c1.012 0.405 8.094 2.92 9.496 2.729 0.051-5e-3 0.104-9e-3 0.158-0.024 1.366-0.267 2.896-1.604 3.853-1.949 0.994-0.359 1.337-1.31 2.202-1.95 0.876-0.643 1.415-2.606 1.415-2.606s2.953-2.644 1.718-2.999c-1.543-0.433-3.286 1.114-3.286 1.114l-3.819 0.654s-4.587-1.814-4.395-2.733c0.203-0.92 2.094-0.166 3.754-0.301 1.1-0.084 1.18-1.285 1.18-1.285l-2.827-0.71s-4.127-0.672-5.013-0.303c-0.882 0.358-4.147 2.421-4.147 2.421l-6.113-0.135-1.181 7.985s5.995-0.326 7.005 0.092" fill="#E9A092"/>
<path d="m16.132 120.82c6.293 3.308 8.521 17.082 7.852 22.671l-6.92 18.385s1.358 2.481 0.243 2.926l15.099 0.426s-3.864 4.025-0.922 11.966c0 0-19.737 5.915-28.19 0-2.446-1.707-3.758-6.59-3.144-10.154 4.332-25.196 15.982-46.22 15.982-46.22" fill="#80A6D7"/>
<path d="m31.51 95.742s-4.418-16.593 7.227-16.886l1.073-0.297-1.073-0.946c10.133-0.364 14.956 3.98 14.956 3.98s5.458 3.029-4.554 6.301c-10.01 3.27-12.253 7.488-12.253 7.488s-1.464-2.691-3.645-2.42c-2.181 0.272-1.731 2.78-1.731 2.78" fill="#34251E"/>
</g>
<g transform="translate(440)">
<path d="m341.54 170.77c0 94.314-76.455 170.77-170.77 170.77-94.314 0-170.77-76.457-170.77-170.77s76.458-170.77 170.77-170.77c94.315 0 170.77 76.457 170.77 170.77" fill="#DBFDC7"/>
<path d="m203.84 35.636s-2.676 4.631-7.957 6.607c-5.286 1.975-6.856 5.721-6.856 5.721s-1.045-2.967-5.466-2.959c-4.426 9e-3 4.352 9.48 4.352 9.48l-3.695 8.082s-3.004 12.474-8.665 13.976c-5.657 1.504-7.735 0.347-7.619-7.16 0.111-7.508-4.853-28.182 13.511-40.999 18.365-12.821 26.544 1.341 22.395 7.252" fill="#2E0C1B"/>
<path d="m214.72 72.422s34.257 6.227 46.455 6.227c12.196 0 33.671-1.298 40.872-1.298 7.198 0 18.877-0.908 24.133 1.298s1.169 2.79-8.758 3.374c-9.926 0.583 5.645 2.337 2.339 3.114-3.314 0.777-5.258-0.388-11.097 0-5.84 0.389-34.058 3.503-42.816 4.282-8.76 0.777-10.124-1.556-18.493 0-8.367 1.556-28.027 6.811-28.61 6.811-0.584 0-4.025-11.905-4.025-11.905v-11.903z" fill="#F4AEAB"/>
<path d="m163.63 99.881-3.077-5.598s-28.61-0.389-39.898 0c-11.288 0.388-42.238-1.125-45.542-0.173-3.313 0.951-11.291 0.759-7.398-1.188 3.893-1.948-5.253-1.557-9.147-1.557-3.893 0-4.087-4.479 8.371-4.867 12.456-0.389 36.977-3.112 46.707-4.475 9.734-1.362 17.908-1.362 17.908-1.362l34.646-8.239 4.168 9.601 4.589 14.207-11.327 3.651z" fill="#F4AEAB"/>
<path d="m169.5 72.422s8.368-0.326 10.315-4.607c1.948-4.283 1.948-6.424 1.948-6.424l4.28-6.424s-5.769-4.414-3.695-9.34c2.104-5.001 6.68 2.337 6.68 2.337l2.289-5.45s2.317-10.706 8.545-10.317c6.23 0.389 13.624 27.056 0 30.558 0 0 3.936 8.771 12.654 9.667l2.201 10.379-7.263 13.429-27.911-1.469-10.043-18.382" fill="#F4AEAB"/>
<path d="m269.35 248.63s15.571-68.121 7.395-73.958c-8.174-5.84-58.583-28.028-58.583-28.028h-56.246s-27.638 30.103-43.468 45.415c-15.829 15.311-56.829 51.382-56.829 51.382s3.891 7.268 12.971 3.634c9.086-3.634 35.293-22.838 51.644-30.363 16.348-7.528 62.799-34.256 66.432-46.709 0 0 25.953 25.947 60.984 23.092 0 0-2.335 33.995 3.116 55.535 0 0 4.667 3.633 12.584 0" fill="#242C55"/>
<path d="m269.35 248.63s-0.575 7.523 9.77 10.121c10.341 2.593 18.648 3.114 17.09 5.968-1.556 2.854-7.214 3.374-13.339 1.817-6.126-1.556-14.427 1.208-18.061 0.864s-8.044-2.161-8.044-7.612v-11.158s9.083-1.298 12.584 0" fill="#F4AEAB"/>
<path d="m61.615 243.44s-16.481 14.919-17.842 16.867c-1.364 1.946 0.778 4.086 7.398 4.086 6.614 0 6.68-0.972 10.444-4.67 3.761-3.698 1.23-3.05 3.956-5.807 2.724-2.757 6.526-6.081 6.526-6.081l-10.482-4.395z" fill="#F4AEAB"/>
<path d="m218.16 146.64s-7.073-28.544-4.736-31.399c2.339-2.857 10.122-11.419 6.228-24.655-3.889-13.235-4.933-18.164-4.933-18.164h-3.632s9.864 16.868-16.087 16.868c-25.949 0-24.635-16.868-24.635-16.868h-5.207s7.004 14.791 3.631 20.76c-3.371 5.967-5.969 7.266-5.969 7.266s11.938 15.57-0.906 46.192h56.246z" fill="#547CBE"/>
<path d="m199.86 62.755s-5.69 0.249-9.755-3.768c0 0 0.952 8.577 7.192 9.269 6.234 0.694 4.862-1.897 4.862-1.897l-2.299-3.604z" fill="#E49090"/>
<g transform="translate(199.59 52.35) rotate(9) translate(-4 -2)">
<mask id="d" fill="white">
<use xlink:href="#b"/>
</mask>
<polygon id="g" points="-1.9053 5.6116 9.7116 5.6116 9.7116 -1.5324 -1.9053 -1.5324" fill="#FEFEFE" mask="url(#d)"/>
</g>
</g>
<g transform="translate(0 24)">
<path d="m372.13 229.77c0 102.76-83.305 186.07-186.07 186.07s-186.07-83.305-186.07-186.07 83.305-186.07 186.07-186.07 186.07 83.306 186.07 186.07" fill="#FFF7A0"/>
<path d="m224.3 148.2s17.963-6.974 19.47 19.271c1.508 26.244-2.388 22.64-5.263 35.671-2.872 13.032-12.71 15.526-11.557 24.677 1.151 9.149-16.591-38.318-12.99-48.119 3.6-9.802 10.34-31.5 10.34-31.5" fill="#381A3E"/>
<path d="m127.04 362.74 51.914-51.217-37.653-15.681 1.782 2.357c-3.831 3.526-42.19 62.546-46.351 73.076-4.159 10.526 127.57 42.98 127.57 42.98v-12.413s-80.027-43.404-97.259-39.102" fill="#E1B9B9"/>
<path d="m245.83 397.75s-0.285 9.085-0.486 15.442c-0.201 6.358 0.301 16.522 0.201 19.702s-8.526 14.471-11.134 13.642c-2.609-0.828-1.622-11.256-4.411-16.785-2.79-5.528-11.938-15.697-10.329-17.095 1.609-1.396 0.645-9.982 2.676-11.747 2.032-1.762 21.806-4.794 23.483-3.159" fill="#162239"/>
<path d="m73.933 331 75.551-8.515-17.883-34.287-0.283 2.862c-5.397 0.435-76.018 22.948-86.561 28.548-10.541 5.603 67.675 108.39 67.675 108.39l8.672-9.508s-30.967-80.584-47.171-87.486" fill="#E1B9B9"/>
<path d="m140.46 428.09s-6.566 6.791-11.163 11.541c-4.596 4.752-11.314 12.834-13.612 15.209-2.299 2.379-16.642 6.041-18.061 3.864-1.42-2.177 6.624-9.58 8.351-15.465 1.726-5.885 1.825-19.087 4.032-19.205 2.207-0.119 7.469-7.266 10.258-7.415 2.789-0.146 20.053 9.229 20.195 11.471" fill="#162239"/>
<path d="m233.4 151.35c1.384 0.319 1.923 2.712 1.205 5.346-0.72 2.634-2.424 4.508-3.809 4.189-1.386-0.322-1.924-2.715-1.206-5.348 0.72-2.633 2.425-4.509 3.81-4.187" fill="#EF7E3F"/>
<path d="m201.87 81.617s3.416-3.188 4.258-1.985c0.843 1.202-1.101 4.686-4.544 6.726-3.441 2.039 0.286-4.741 0.286-4.741" fill="#EA5E5D"/>
<path d="m162.52 128.35c-1.341 5.706-11.609 71.565-7.77 73.238 3.84 1.674 15.774-16.073 17.722-20.751 1.944-4.676 1.176-45.208 2.519-50.913 1.123-4.776 17.643-26.491 23.267-38.766 0.272-0.593 5.316-6.391 5.557-6.932 0.728-1.639-6.212-3.913-5.841-4.967 0 0-34.112 43.386-35.454 49.091" fill="#E1B9B9"/>
<path d="m196.74 186.01s-19.962-5.479-24.005-6.285c-4.044-0.806-19.062 17.629-21.775 29.161-2.713 11.535-9.958 51.77-9.958 51.77s-60.843 25.192-77.009 30.932c0 0 42.666 25.577 55.884 33.272 13.219 7.696 66.228 37.59 71.638 34.382 0 0-14.48-46.618-11.94-57.407 4.013-17.066-4.736-27.935-2.374-37.981 2.363-10.046 33.461-56.71 35.475-65.268 2.012-8.557-15.936-12.576-15.936-12.576" fill="url(#f)"/>
<path d="m192.57 162.97s-12.931 22.739-13.43 25.733l-2.702 21.061s19.111-16.737 19.369-17.052c2.098-2.566 11.606-24.507 11.606-24.507l-14.843-5.235z" fill="#E1B9B9"/>
<path d="m207.41 168.21-14.843-5.235s-2.078 3.675-4.654 8.356c4.559 2.515 19.497-3.121 19.497-3.121" fill="#EA5E5D"/>
<path d="m226.37 250.08c9.25 17.045 5.966 46.628 1.278 53.255-4.314 6.095-4.175 11.63-7.347 16.114-1.536 2.169-1.483 2.955-1.432 3.143 0.07 0.247 0.823 0.338 2.131 0.029 2.311-0.545 3.194-7.495 5.35-8.003 0.475-0.111 1.074 0.097 1.275 0.817 0.735 2.637-3.755 20.65-2.074 21.033 1.253 0.282 1.376-3.061 1.405-3.147 1.827-11.148 2.609-14.823 4.397-13.945 0.261 0.128 0.44 0.359 0.53 0.683 0.581 2.082-2.369 17.176-0.297 18.81 0.525 0.414 1.349-3.684 1.378-3.77 0.34-1.81 0.151-14.012 1.841-14.9 3.165-1.663 0.68 15.721 3.527 15.049 1.632-0.387 0.243-5.628 0.151-8.226-0.19-5.328-0.15-6.624 0.674-7.094 1.584-0.905 2.861 2.525 3.893 4.772 0.809 1.758 2.274 4.941 3.082 5.557 1.092-1.789-1.987-8.182-2.856-10.084-1.656-3.618-1.538-2.675-3.364-14.609-0.68-4.448-0.806-3.129 0.078-6.04 4.576-15.058 9.131-35.279 4.91-50.429-3.385-12.144-24.99-50.163-34.003-56.235-5.422 4.965-8.108 16.555-7.805 24.237 8.704 3.076 19.712 26.412 23.278 32.983" fill="#E1B9B9"/>
<path d="m238.38 62.043c-0.315-0.704-1.215-1.046-1.988-0.746l-17.72 6.847c-3.653 1.413-7.409-1.806-6.137-5.261l6.676-18.13c0.269-0.73-0.156-1.522-0.95-1.77-0.796-0.248-1.657 0.144-1.925 0.874l-7.526 20.436c-2.212 6.004-6.135 11.354-11.359 15.489l-24.813 19.644c-0.117 0.093-0.232 0.195-0.339 0.3-1.517 1.517-1.412 3.878 0.236 5.274 1.647 1.395 4.213 1.297 5.73-0.218l23.675-23.659c3.745-3.742 8.323-6.699 13.42-8.668l22.209-8.583c0.773-0.297 1.136-1.115 0.811-1.829" fill="#314B9A"/>
<path d="m268.33 48.087c-14.941 13.295-34.431 17.054-43.529 8.396-9.096-8.657-4.358-26.452 10.587-39.747 14.944-13.293 34.432-17.052 43.529-8.394 9.097 8.657 4.357 26.452-10.587 39.745m-55.786 14.796 4.174-11.335c0.773 3.082 2.294 5.815 4.614 8.022 2.22 2.114 4.99 3.571 8.138 4.406l-10.788 4.167c-3.654 1.414-7.41-1.806-6.138-5.26m69.844-57.628c-10.265-9.768-32.253-5.527-49.112 9.471-10.233 9.103-16.224 20.076-17.059 29.481l-7.398 20.085c-2.212 6.005-6.134 11.355-11.359 15.49l-24.812 19.644c-0.118 0.093-0.232 0.194-0.339 0.3-1.517 1.516-1.413 3.877 0.236 5.273 1.647 1.396 4.213 1.298 5.729-0.217l23.676-23.659c3.745-3.742 8.322-6.7 13.42-8.668l19.804-7.652c10.755 0.418 24.132-4.796 35.27-14.704 16.86-14.999 22.206-35.077 11.944-44.844" fill="#314B9A"/>
<path d="m202.33 74.081s3.032 3.613 1.867 8.571c-1.166 4.959-5.98 7.272-8.099 6.849-2.119-0.422-6.387-2.834-5.951-4.658 0.435-1.824 2.117-2.555 2.72-5.125 0.605-2.569 5.927-7.977 9.463-5.637" fill="#E1B9B9"/>
<path d="m188.99 86.485-16.345 12.941c-0.118 0.093-0.232 0.194-0.34 0.3-1.516 1.516-1.412 3.877 0.237 5.273 1.647 1.396 4.213 1.298 5.729-0.217l14.253-14.243c-1.336-1.437-2.626-2.955-3.534-4.054" fill="#412313"/>
<path d="m277.84 30.578-1.766-1.577 2.283-1.987 1.721 1.505-2.238 2.059zm1.914 1.934-2.17 2.011-1.947-1.695 2.204-2.025 1.913 1.709zm-4.77 4.422-1.917-1.741 2.448-2.251 1.947 1.695-2.478 2.297zm-1.831 1.699-1.928-1.746 1.718-1.58 1.918 1.741-1.708 1.585zm-2.572 2.385-1.931-1.763 2.453-2.256 1.926 1.746-2.448 2.273zm-2.609 2.418-1.93-1.783 2.485-2.286 1.93 1.764-2.485 2.305zm-2.29 2.123-1.95-1.782 2.188-2.011 1.93 1.784-2.168 2.009zm-3.07 2.847-1.927-1.826 2.923-2.69 1.954 1.783-2.95 2.733zm-2.617 2.43-1.907-1.869 2.473-2.275 1.929 1.827-2.495 2.317zm-2.176 2.017-1.919-1.873 2.066-1.899 1.905 1.867-2.052 1.905zm-2.729 2.53-1.94-1.875 2.627-2.416 1.918 1.875-2.605 2.416zm-4.713 0.448-2.402-2.364 2.573-2.242 2.359 2.28-2.53 2.326zm-2.41 2.217-2.488-2.408 2.369-2.062 2.406 2.367-2.287 2.103zm-5.293-0.186-2.407-2.352 2.547-2.217 2.418 2.341-2.558 2.228zm-2.271 1.976-2.443-2.32 2.18-1.898 2.407 2.353-2.144 1.865zm-4.933-0.374-2.478-2.169 2.331-2.05 2.389 2.268-2.242 1.951zm-4.302-0.788-2.8-2.316 1.65-1.45 2.722 2.385-1.572 1.381zm-5.21-4.309 1.707-1.517 2.226 1.949-1.652 1.455-2.281-1.887zm-2.868-2.372 1.813-1.565 2.636 2.31-1.711 1.521-2.738-2.266zm-0.578-3.878 2.767-2.41 2.308 2.191-2.684 2.314-2.391-2.095zm0.786-4.522 2.369-2.129 1.991 1.948-2.375 2.068-1.985-1.887zm-0.186-4.857 2.444-2.145 2.545 2.462-2.429 2.183-2.56-2.5zm0.449-4.309 2.564-2.216 1.966 1.935-2.528 2.218-2.002-1.937zm5.069-4.379 1.967 1.901-2.38 2.087-1.964-1.934 2.377-2.054zm2.966-2.563 1.936 1.888-2.81 2.465-1.966-1.901 2.84-2.452zm-2.014-2.2 2.191-1.874 2.007 1.968-2.176 1.88-2.022-1.974zm4.399-3.761 2.032 1.925-2.107 1.82-2.007-1.966 2.082-1.779zm2.663-2.277 2.056 1.879-2.559 2.213-2.032-1.925 2.535-2.167zm2.556-2.187 2.033 1.88-2.405 2.076-2.057-1.878 2.429-2.078zm2.54-2.171 2.03 1.858-2.41 2.083-2.032-1.879 2.412-2.062zm2.56-2.189 2.027 1.838-2.428 2.099-2.032-1.856 2.433-2.081zm1.93-1.65 2.016 1.831-1.791 1.548-2.027-1.837 1.802-1.542zm2.093-1.791 2.05 1.785-2.001 1.726-2.014-1.83 1.965-1.681zm4.892-0.452 1.865 1.666-2.546 2.234-1.909-1.663 2.59-2.237zm2.186-1.888 1.868 1.635-2.062 1.809-1.866-1.665 2.06-1.779zm5.023-0.912 2.244 1.994-2.853 2.561-2.294-2.008 2.903-2.547zm5.01-0.268 2.624 2.48-2.472 2.151-2.669-2.369 2.517-2.262zm5.112 0.531 2.559 2.365-2.28 1.967-2.519-2.38 2.24-1.952zm4.256 1.12 1.82 1.736-1.398 1.243-1.87-1.73 1.448-1.249zm4.312 4.115-1.362 1.199-2.406-2.223 1.397-1.239 2.371 2.263zm1.304 3.89-2.342 2.059-2.638-2.493 2.312-2.032 2.668 2.466zm0.246 4.734-2.068 1.801-2.668-2.369 2.142-1.881 2.594 2.449zm-7.229 6.513 2.256-1.963 2.539 2.222-2.28 1.987-2.515-2.246zm0.096 4.351-2.546-2.218 2.323-2.023 2.514 2.246-2.291 1.995zm0.128 0.11 2.288-1.994 1.77 1.581-2.206 2.027-1.852-1.614zm-2.601 2.264 2.475-2.155 1.855 1.617-2.446 2.25-1.884-1.712zm-1.894 1.648 1.767-1.538 1.888 1.716-1.717 1.578-1.938-1.756zm-2.637 2.296 2.511-2.186 1.942 1.76-2.453 2.254-2-1.828zm-2.667 2.323 2.54-2.212 2.004 1.831-2.484 2.284-2.06-1.903zm-2.385 2.077 2.259-1.968 2.063 1.908-2.189 2.011-2.133-1.951zm-3.09 2.69 2.962-2.58 2.139 1.955-2.923 2.687-2.178-2.062zm-2.624 2.285 2.498-2.175 2.182 2.065-2.471 2.272-2.209-2.162zm-2.251 1.959 2.125-1.85 2.211 2.167-2.065 1.899-2.271-2.216zm-0.126 0.11 2.273 2.22-2.627 2.415-2.356-2.276 2.71-2.359zm-5.249-0.095 2.724-2.37 2.406 2.349-2.711 2.359-2.419-2.338zm-2.677 2.331 2.55-2.219 2.42 2.337-2.573 2.24-2.397-2.358zm-0.127 0.109 2.398 2.358-2.37 2.063-2.419-2.34 2.391-2.081zm-4.899-0.346 2.402-2.11 2.379 2.34-2.393 2.082-2.388-2.312zm-2.647 2.326 2.521-2.216 2.388 2.311-2.546 2.216-2.363-2.311zm-0.126 0.111 2.363 2.309-2.184 1.901-2.388-2.268 2.209-1.942zm-4.944-0.656 2.251-1.979 2.574 2.518-2.211 1.943-2.614-2.482zm-0.127 0.111 2.614 2.483-2.337 2.053-2.721-2.385 2.444-2.151zm-2.27-2.156 2.149 2.042-2.452 2.154-2.225-1.948 2.528-2.248zm-0.121-0.114-2.533 2.251-2.634-2.307 2.676-2.309 2.491 2.365zm-0.018-4.498 2.42 2.365-2.277 2.021-2.489-2.363 2.346-2.023zm-0.118-0.117-2.348 2.025-2.309-2.191 2.374-2.067 2.283 2.233zm0.321-4.5 2.308 2.233-2.503 2.159-2.284-2.234 2.479-2.158zm-0.12-0.117-2.478 2.158-1.992-1.948 2.429-2.184 2.041 1.974zm0.56-4.311 2.062 2.026-2.496 2.175-2.043-1.977 2.477-2.224zm-0.118-0.118-2.478 2.227-2.544-2.462 2.528-2.217 2.494 2.452zm2.501-2.247-2.377 2.136-2.492-2.452 2.38-2.088 2.489 2.404zm2.888-2.594-2.762 2.482-2.489-2.403 2.81-2.462 2.441 2.383zm-0.161-4.384 2.411 2.362-2.126 1.911-2.439-2.382 2.154-1.891zm-0.117-0.117-2.157 1.891-1.934-1.888 2.175-1.881 1.916 1.878zm2.255-1.978-2.131 1.867-1.913-1.877 2.108-1.822 1.936 1.832zm2.705-2.373-2.58 2.262-1.935-1.831 2.565-2.214 1.95 1.783zm2.501-2.195-2.376 2.084-1.949-1.781 2.405-2.076 1.92 1.773zm2.532-2.22-2.407 2.112-1.919-1.776 2.412-2.085 1.914 1.749zm2.544-2.234-2.419 2.123-1.912-1.747 2.431-2.098 1.9 1.722zm1.904-1.669-1.777 1.559-1.901-1.722 1.791-1.548 1.887 1.711zm0.126-0.109-1.885-1.712 2.001-1.73 1.911 1.664-2.027 1.778zm4.514 0.387-2.054 1.847-2.335-2.123 2.029-1.779 2.36 2.055zm2.609-2.343-2.485 2.232-2.36-2.054 2.545-2.232 2.3 2.054zm0.124-0.112-2.297-2.053 2.063-1.811 2.296 2.01-2.062 1.854zm4.829 0.57-2.121 1.848-2.583-2.307 2.064-1.852 2.64 2.311zm0.126-0.111-2.642-2.313 2.851-2.561 2.667 2.369-2.876 2.505zm5.588-0.096-2.869 2.475-2.591-2.268 2.873-2.505 2.587 2.298zm0.126-0.108-2.587-2.299 2.468-2.15 2.519 2.379-2.4 2.07zm4.407-0.174-2.301 2.044-1.981-1.76 2.396-2.066 1.886 1.782zm0.124-0.111-1.883-1.78 2.281-1.969 1.873 1.732-2.271 2.017zm0.121 0.114 2.272-2.019 2.404 2.223-2.31 2.03-2.366-2.234zm8e-3 4.31-2.429-2.158 2.296-2.041 2.366 2.235-2.233 1.964zm0.125 0.111 2.229-1.96 2.638 2.493-2.145 1.884-2.722-2.417zm-0.191 4.977-2.74-2.399 2.805-2.468 2.721 2.418-2.786 2.449zm0.126 0.11 2.786-2.448 2.667 2.369-2.779 2.418-2.674-2.339zm-2.342 2.059 2.217-1.948 2.673 2.338-2.255 1.963-2.635-2.353zm-2.474 2.173 2.347-2.061 2.634 2.351-2.324 2.024-2.657-2.314zm0.114 4.527-2.59-2.351 2.351-2.066 2.657 2.313-2.418 2.104zm0.123 0.113 2.42-2.107 2.547 2.218-2.473 2.153-2.494-2.264zm-1.895 1.648 1.768-1.539 2.495 2.265-1.767 1.539-2.496-2.265zm-2.628 2.287 2.501-2.176 2.497 2.263-2.511 2.187-2.487-2.274zm-2.652 2.308 2.525-2.197 2.489 2.272-2.541 2.211-2.473-2.286zm-2.402 2.092 2.276-1.982 2.473 2.285-2.26 1.969-2.489-2.272zm-3.042 2.646 2.915-2.538 2.489 2.274-2.959 2.578-2.445-2.314zm-2.579 2.244 2.453-2.133 2.443 2.313-2.495 2.173-2.401-2.353zm-0.126 0.111 2.402 2.352-2.126 1.85-2.405-2.348 2.129-1.854zm-4.664-0.619 2.127-1.87 2.419 2.372-2.131 1.853-2.415-2.355zm-2.85 2.503 2.725-2.395 2.413 2.358-2.724 2.371-2.414-2.334zm-0.126 0.111 2.415 2.333-2.55 2.219-2.38-2.34 2.515-2.212zm-5.204-0.432 2.489-2.189 2.595 2.506-2.515 2.209-2.569-2.526zm-2.55 2.242 2.425-2.132 2.568 2.527-2.402 2.111-2.591-2.506zm-0.125 0.11 2.589 2.506-2.519 2.216-2.575-2.519 2.505-2.203zm-2.391-2.314-2.482 2.205-2.416-2.365 2.502-2.159 2.396 2.319zm0.217-4.572 2.339 2.299-2.432 2.161-2.392-2.316 2.485-2.144zm-0.118-0.117-2.486 2.146-2.31-2.235 2.494-2.174 2.302 2.263zm0.26-4.494 2.334 2.258-2.467 2.127-2.302-2.264 2.435-2.121zm-0.121-0.115-2.434 2.119-2.062-2.027 2.378-2.138 2.118 2.046zm2.918-2.542-2.791 2.432-2.121-2.048 2.763-2.481 2.149 2.097zm2.28-1.986-2.153 1.876-2.151-2.099 2.127-1.91 2.177 2.133zm0.099-4.179 2.251 2.132-2.224 1.938-2.179-2.136 2.152-1.934zm-0.121-0.114-2.151 1.932-2.409-2.362 2.132-1.87 2.428 2.3zm2.721-2.444-2.596 2.332-2.428-2.298 2.583-2.265 2.441 2.231zm2.455-2.206-2.332 2.094-2.439-2.23 2.374-2.082 2.397 2.218zm2.518-2.264-2.394 2.151-2.395-2.215 2.407-2.111 2.382 2.175zm2.525-2.268-2.4 2.157-2.381-2.174 2.42-2.124 2.361 2.141zm0.126-0.111-2.361-2.14 1.777-1.558 2.336 2.122-1.752 1.576zm4.363 0.792-1.779 1.551-2.461-2.231 1.754-1.575 2.486 2.255zm2.268-1.976-2.143 1.868-2.487-2.26 2.057-1.847 2.573 2.239zm0.126-0.108-2.576-2.243 2.485-2.231 2.58 2.305-2.489 2.169zm5.168 0.222-2.468 2.129-2.573-2.243 2.487-2.166 2.554 2.28zm0.126-0.108-2.553-2.283 2.122-1.849 2.591 2.269-2.16 1.863zm4.328 0.034-2.149 1.91-2.053-1.833 2.16-1.863 2.042 1.786zm0.126-0.111-2.041-1.785 2.869-2.474 1.982 1.761-2.81 2.498zm0.124 0.109 2.811-2.496 2.429 2.156-2.807 2.47-2.433-2.13zm0.121 4.163-2.396-2.14 2.152-1.912 2.431 2.129-2.187 1.923zm0.126 0.111 2.186-1.924 2.74 2.399-2.215 1.948-2.711-2.423zm-2.51 2.206 2.383-2.094 2.712 2.421-2.35 2.065-2.745-2.392zm-2.416 2.124 2.29-2.013 2.746 2.39-2.347 2.064-2.689-2.441zm0.801 4.1-2.689-2.437 1.763-1.553 2.687 2.44-1.761 1.55zm0.124 0.112 1.761-1.548 2.588 2.35-1.768 1.539-2.581-2.341zm-2.606 2.289 2.479-2.178 2.581 2.341-2.5 2.175-2.56-2.338zm-2.623 2.305 2.498-2.194 2.558 2.338-2.524 2.196-2.532-2.34zm-2.406 2.114 2.28-2.003 2.531 2.339-2.276 1.982-2.535-2.318zm-2.98 2.62 2.854-2.508 2.535 2.316-2.913 2.535-2.476-2.343zm-0.126 0.11 2.475 2.344-2.451 2.131-2.419-2.37 2.395-2.105zm-5.091-0.537 2.345-2.063 2.625 2.485-2.393 2.103-2.577-2.525zm-2.256 1.983 2.13-1.874 2.577 2.526-2.125 1.868-2.582-2.52zm-0.126 0.11 2.582 2.521-2.727 2.395-2.593-2.506 2.738-2.41zm-5.039 0.188 2.739-2.433 2.182 2.13-2.74 2.409-2.181-2.106zm-0.245-4e-3 -2.455 2.181-2.337-2.299 2.469-2.128 2.323 2.246zm0.594-4.762 2.27 2.216-2.738 2.434-2.322-2.243 2.79-2.407zm-0.12-0.117-2.79 2.407-2.336-2.256 2.792-2.431 2.334 2.28zm2.287-1.971-2.159 1.863-2.337-2.281 2.153-1.877 2.343 2.295zm2.406-2.077-2.28 1.968-2.343-2.297 2.228-1.938 2.395 2.267zm0.413-4.713 2.452 2.242-2.738 2.362-2.397-2.269 2.683-2.335zm-0.124-0.114-2.679 2.334-2.255-2.132 2.6-2.335 2.334 2.133zm2.48-2.159-2.355 2.05-2.335-2.135 2.332-2.094 2.358 2.179zm2.57-2.24-2.445 2.129-2.36-2.18 2.395-2.151 2.41 2.202zm0.126-0.11-2.412-2.204 2.403-2.157 2.456 2.229-2.447 2.132zm5.074 0.248-2.472 2.13-2.479-2.266 2.45-2.132 2.501 2.268zm1.911-1.65-1.784 1.54-2.502-2.269 1.778-1.548 2.508 2.277zm0.129-0.109-2.511-2.279 2.146-1.868 2.574 2.242-2.209 1.905zm4.453 0.05-2.222 1.976-2.109-1.914 2.212-1.908 2.119 1.846zm0.125-0.112-2.118-1.843 2.466-2.127 2.054 1.835-2.402 2.135zm0.125 0.11 2.402-2.134 2.396 2.14-2.385 2.096-2.413-2.102zm-2.351 2.089 2.227-1.978 2.413 2.101-2.287 2.013-2.353-2.136zm-1.882 1.673 1.757-1.562 2.351 2.134-1.763 1.552-2.345-2.124zm-0.248 4.404-2.32-2.121 2.444-2.172 2.342 2.124-2.466 2.169zm0.124 0.112 2.467-2.169 2.688 2.438-2.477 2.178-2.678-2.447zm-2.605 2.292 2.479-2.182 2.677 2.447-2.496 2.194-2.66-2.459zm-2.423 2.13 2.298-2.021 2.659 2.459-2.281 2.006-2.676-2.444zm-0.125 0.111 2.674 2.445-2.852 2.506-2.625-2.486 2.803-2.465zm-5.165 0.228 2.746-2.439 2.295 2.098-2.8 2.463-2.241-2.122zm-2.416 2.148 2.292-2.036 2.24 2.12-2.343 2.061-2.189-2.145zm-0.125 0.11 2.189 2.145-2.131 1.874-2.183-2.131 2.125-1.888zm-0.118-0.115-2.126 1.887-2.269-2.215 2.159-1.862 2.236 2.19zm2.413-2.145-2.288 2.034-2.234-2.188 2.282-1.969 2.24 2.123zm2.869-2.548-2.743 2.435-2.238-2.119 2.74-2.365 2.241 2.049zm0.234-4.183 2.191 2.026-2.3 2.044-2.24-2.044 2.349-2.026zm-0.122-0.114-2.349 2.026-2.454-2.242 2.352-2.05 2.451 2.266zm0.125-0.108-2.45-2.268 2.445-2.13 2.48 2.264-2.475 2.134zm4.605 4.481-2.299 2.022-2.295-2.097 2.299-2.045 2.295 2.12zm-2.169-2.231 2.452-2.178 2.321 2.121-2.479 2.179-2.294-2.122zm2.329-2.29-2.452 2.178-2.189-2.025 2.473-2.134 2.168 1.981zm0.558-4.332 1.784-1.539 2.109 1.916-1.758 1.561-2.135-1.938zm2.011 2.049-2.444 2.171-2.167-1.978 2.472-2.132 2.139 1.939zm-18.283 20.484-2.423 2.133-2.154-2.085 2.431-2.16 2.146 2.112zm-2.022-2.222 2.457-2.182 2.181 2.105-2.489 2.189-2.149-2.112zm-3.159 6.779-2.252 1.981-2.15-2.042 2.273-2.02 2.129 2.081zm-2.003-2.193 2.481-2.205 2.153 2.083-2.505 2.205-2.129-2.083zm48.273-23.858-2.758 2.402-2.538-2.221 2.776-2.418 2.52 2.237zm0.687 2.769-0.122-0.113-1.48 1.361-1.718-1.504 2.758-2.402 0.882 0.785 0.12-0.115-0.876-0.779 1.366-1.189-0.12-0.116-1.372 1.194-2.518-2.238 2.065-1.798 1.575 1.49 0.124-0.113-1.574-1.486 1.855-1.613-0.121-0.115-1.855 1.614-2.596-2.452 2.345-2.06 1.922 1.775 0.124-0.113-1.92-1.773 1.334-1.17-0.121-0.117-1.336 1.174-2.668-2.467 1.36-1.197 1.884 1.799 0.124-0.111-1.882-1.798 0.696-0.614-0.118-0.116-0.7 0.615-2.373-2.265 0.666-0.591-0.12-0.114-0.665 0.591-1.818-1.736 0.738-0.637-0.118-0.117-0.74 0.639-1.789-1.708-0.124 0.111 1.786 1.706-1.449 1.251-2.56-2.366 0.985-0.86-0.118-0.115-0.99 0.861-1.492-1.378-0.122 0.113 1.488 1.376-2.24 1.951-2.625-2.481 1.406-1.262-0.123-0.115-1.403 1.262-1.37-1.292-0.123 0.111 1.369 1.292-2.523 2.266-2.242-1.992 0.686-0.601-0.121-0.116-0.691 0.606-1.113-0.989-0.12 0.115 1.107 0.985-2.903 2.547-1.867-1.635 1.363-1.18-0.117-0.114-1.373 1.184-0.738-0.646-0.121 0.115 0.733 0.64-2.058 1.778-1.867-1.668-0.121 0.115 1.861 1.662-2.592 2.238-2.047-1.782 1.521-1.301-0.119-0.116-1.529 1.306-0.486-0.423-0.118 0.116 0.478 0.416-1.965 1.68-1.031-0.937-0.123 0.114 1.027 0.931-1.802 1.542-0.983-0.891-0.122 0.113 0.977 0.886-2.433 2.081-1.012-0.925-0.122 0.114 1.007 0.92-2.412 2.061-1.378-1.275-0.124 0.112 1.375 1.273-2.429 2.077-1.358-1.242-0.124 0.113 1.354 1.237-2.532 2.166-0.967-0.914-0.125 0.112 0.964 0.912-2.078 1.777-0.972-0.952-0.128 0.109 0.972 0.951-2.19 1.875-0.334-0.327-0.126 0.111 0.332 0.325-2.469 2.11 0.118 0.118 2.469-2.113 2.022 1.974-2.84 2.455-2.001-1.934-0.126 0.111 2 1.932-2.377 2.054-1.527-1.502-0.127 0.109 1.528 1.503-2.565 2.216-0.461-0.447-0.127 0.11 0.461 0.446-0.738 0.639 0.119 0.116 0.738-0.64 2.004 1.94-2.443 2.143-0.92-0.9-0.128 0.109 0.922 0.901-1.457 1.278 0.119 0.115 1.457-1.277 2.561 2.504-2.372 2.13-2.009-1.908-0.125 0.111 2.008 1.909-2.098 1.884 0.122 0.116 2.098-1.885 1.985 1.886-2.77 2.415-1.582-1.386-0.12 0.115 1.576 1.379-0.933 0.814 0.119 0.115 0.94-0.818 2.389 2.094-1.816 1.568-1.455-1.205-0.116 0.119 1.444 1.195-0.267 0.23 0.118 0.117 0.279-0.241 2.74 2.268-1.011 0.897 0.121 0.114 1.02-0.904 2.28 1.885-1.233 1.084 0.12 0.117 1.241-1.094 2.8 2.316-0.234 0.206 0.12 0.115 0.244-0.214 1.327 1.098 0.116-0.119-1.317-1.089 1.568-1.379 2.479 2.171-0.812 0.705 0.121 0.114 0.817-0.71 1.326 1.16 0.12-0.115-1.32-1.154 2.237-1.948 2.445 2.321-0.87 0.756 0.12 0.117 0.87-0.758 0.254 0.241 0.125-0.112-0.252-0.239 2.142-1.864 1.818 1.777 0.126-0.109-1.82-1.779 2.562-2.229 2.492 2.411-1.538 1.413 0.122 0.113 1.535-1.409 0.56 0.541 0.127-0.111-0.564-0.545 2.287-2.102 1.622 1.596 0.126-0.109-1.625-1.599 2.53-2.329 1.94 1.876-1.667 1.545 0.123 0.114 1.665-1.544 0.769 0.743 0.127-0.109-0.773-0.748 2.604-2.415 1.347 1.314 0.125-0.11-1.349-1.317 2.052-1.904 1.407 1.378 0.126-0.11-1.411-1.381 2.499-2.317 1.775 1.679 0.124-0.112-1.774-1.681 2.947-2.735 2.582 2.359 0.121-0.114-2.58-2.359 2.166-2.009 2.038 1.885 0.124-0.113-2.04-1.885 2.487-2.306 2.217 2.024 0.121-0.112-2.215-2.026 2.449-2.272 1.636 1.483 0.123-0.114-1.636-1.482 1.71-1.585 1.235 1.123 0.124-0.114-1.237-1.122 2.48-2.301 0.639 0.557 0.12-0.116-0.637-0.553 2.23-2.068-0.062-0.056 0.061-0.058-1.974-1.763 2.238-2.058 0.941 0.821 0.118-0.115-0.935-0.819 1.475-1.358z" fill="#FED988"/>
<path d="m213.44 72.044c-0.905 0.849-2.684 0.599-3.969-0.562-1.285-1.16-1.591-2.79-0.686-3.64 0.906-0.849 2.683-0.597 3.968 0.562 1.286 1.161 1.593 2.79 0.687 3.64" fill="#FED988"/>
<path d="m267.36 47.168c-10.598 9.428-23.857 14.242-33.78 12.267-3.147-0.627-5.766-1.918-7.784-3.84-8.549-8.137-3.816-25.156 10.552-37.939 10.598-9.427 23.856-14.242 33.78-12.267 3.147 0.629 5.766 1.92 7.786 3.841 8.55 8.137 3.814 25.156-10.554 37.938m11.552-38.826c-9.097-8.658-28.585-4.899-43.529 8.394-14.945 13.295-19.684 31.09-10.587 39.747 9.098 8.658 28.587 4.899 43.529-8.396 14.944-13.294 19.684-31.088 10.587-39.745" fill="#412313"/>
<path d="m226.64 152.26c1.186 4.33-1.305 8.85-3.146 10.845-4.174 4.52-13.406 8.262-28.074 5.083-14.669-3.178-12.744-9.18-12.211-10.278 0 0 12.099-12.566 18.865-15.559 0 0 18.962-10.543 24.566 9.909" fill="#E1B9B9"/>
<path d="m230.08 146.39c5.61 8.911 3.568 12.563-2.847 19.076-6.417 6.513-21.105 5.036-20.299 3.885 0 0 7.046-9.095 8.799-12.579 6.457-12.841-9.257-17.138-9.257-17.138 4.378-6.777 17.995-2.153 23.604 6.756" fill="#5C2D55"/>
<path d="m207.79 162.97s4.407 3.3 8.467 1.705c4.061-1.594 2.724-6.971-1.139-7.382-3.861-0.408-7.328 5.677-7.328 5.677" fill="#E9A092"/>
<g transform="translate(189.23 156.21) rotate(50) translate(-4 -2)">
<mask id="c" fill="white">
<use xlink:href="#a"/>
</mask>
<polygon points="-1.9053 5.6116 9.7116 5.6116 9.7116 -1.5324 -1.9053 -1.5324" fill="#FEFEFE" mask="url(#c)"/>
</g>
</g>
<g transform="translate(505 535)">
<path d="m29.55 153.24c0 84.634 70.579 153.24 157.65 153.24 87.063 0 157.64-68.608 157.64-153.24 0-84.633-70.579-153.24-157.64-153.24-87.067 0-157.65 68.607-157.65 153.24" fill="#83EAD3"/>
<polygon points="51.057 226.03 91.721 234.58 262.01 234.58 319.79 231.97 314.89 193.39 250.51 195.21 76.322 187.39 43.148 203.8" fill="#231F20"/>
<path d="m2.282 202.41c-1.462 1.465-2.282 3.422-2.282 5.464v1.957c0 1.019 0.207 2.031 0.602 2.974l3.695 8.763 49.294 8.084v-6.807c0-14.518 12.104-26.287 27.036-26.287h0.273c14.936 0 27.037 11.769 27.037 26.287v8.358h150.76l1.933 0.117v-8.475c0-14.518 12.103-26.287 27.037-26.287h0.275c14.933 0 27.039 11.769 27.039 26.287v11.732l42.899-6.661 4.887-8.556c0.741-1.292 1.129-2.745 1.129-4.223v-5.322c0-0.983-0.388-1.928-1.084-2.646l-3.27-3.369-2.774-6.533s-3.1-15.21-15.121-15.21c0 0-8.044-2.999-23.133-4.237 0 0-42.729-4.429-50.881-1.87-23.032-14.368-55.004-35.757-107.26-35.757-65.662 0-117.23 27.069-117.23 27.069l-25.946 3.387s-15.552-1.52-15.552 8.409c0 9.93 0.632 23.352 0.632 23.352" fill="url(#e)"/>
<path d="m314.97 222.26h-2e-3c-0.011-0.402-0.032-0.797-0.059-1.195 0.033 0.398 0.048 0.793 0.061 1.195" fill="#535878"/>
<path d="m347.2 191.42c1.58 1.454 2.944 3.146 4.022 5.045l3.391 5.973h-21.737c-0.564-5.657-3.014-7.941-3.014-7.941l6.409-2.44c1.102-0.42 2.279-0.637 3.463-0.637h7.466z" fill="#231F20"/>
<path d="m265.69 222.96c0-11.872 9.902-21.498 22.118-21.498 12.213 0 22.117 9.626 22.117 21.498 0 11.875-9.904 21.5-22.117 21.5-12.216 0-22.118-9.625-22.118-21.5" fill="#59595B"/>
<path d="m272.74 222.96c0-8.083 6.746-14.64 15.064-14.64 8.319 0 15.064 6.557 15.064 14.64 0 8.089-6.745 14.645-15.064 14.645-8.318 0-15.064-6.556-15.064-14.645" fill="#231F20"/>
<path d="m283.05 222.96c0-2.552 2.126-4.623 4.756-4.623 2.627 0 4.756 2.071 4.756 4.623 0 2.555-2.129 4.625-4.756 4.625-2.63 0-4.756-2.07-4.756-4.625" fill="#A6A8AB"/>
<path d="m58.966 222.96c0-11.872 9.899-21.498 22.113-21.498 12.213 0 22.117 9.626 22.117 21.498 0 11.875-9.904 21.5-22.117 21.5-12.214 0-22.113-9.625-22.113-21.5" fill="#59595B"/>
<path d="m66.014 222.96c0-8.083 6.745-14.64 15.064-14.64 8.316 0 15.063 6.557 15.063 14.64 0 8.089-6.747 14.645-15.063 14.645-8.319 0-15.064-6.556-15.064-14.645" fill="#231F20"/>
<path d="m76.322 222.96c0-2.552 2.129-4.623 4.757-4.623 2.626 0 4.756 2.071 4.756 4.623 0 2.555-2.13 4.625-4.756 4.625-2.628 0-4.757-2.07-4.757-4.625" fill="#A6A8AB"/>
<path d="m176.84 184.77h7.133c1.781 0 3.224 1.403 3.224 3.137 0 1.728-1.443 3.132-3.224 3.132h-5.011c-1.779 0-5.344-1.404-5.344-3.132 0-1.734 1.443-3.137 3.222-3.137" fill="#231F20"/>
<path d="m104.37 183.75h7.133c7.438 0 3.221 1.401 3.221 3.133 0 1.729-1.443 3.132-3.221 3.132h-7.133c-1.784 0-3.223-1.403-3.223-3.132 0-1.732 1.439-3.133 3.223-3.133" fill="#231F20"/>
<path d="m70.812 173.03 179.92 6.037c0.722 0.025 1.092-0.827 0.57-1.31-6.523-6.043-34.742-29.957-74.444-31.707-44.53-1.964-76.777 4.725-106.5 25.557-0.624 0.44-0.319 1.397 0.45 1.423" fill="#231F20"/>
<path d="m172.66 176.51-6.687-0.221-4.356-30.565c1.652 6e-3 3.322 0.023 5.015 0.056l6.028 30.73z" fill="#FEFEFE"/>
<polygon points="168.1 176.29 177.55 231.21 176.92 231.21 167.14 176.29" fill="#231F20"/>
<path d="m247.68 124.62c-2.066-1.057-5.136 7.779-1.891 9.296 3.251 1.521 5.728-4.952 5.728-4.952s-1.674-3.241-3.837-4.344" fill="#C86F31"/>
<path d="m236.83 128.56c0.83-0.202 3.467 0.101 3.467 0.101 2.039 0.589 3.168 0.908 4.358 0.702 1.186-0.202 3.784 1.722 3.784 1.722s1.329-2.651 0.82-5.515c0 0-1.61-0.531-1.919-0.958-0.621-0.85-0.353-2.44-1.818-3.755-1.463-1.321-2.637-3.674-2.637-3.674s-1.098-0.044-0.94 0.955c0.156 1.012 1.278 2.157 1.206 2.626-0.012 0.095-0.037 0.187-0.073 0.27 0 0-4e-3 8e-3 -4e-3 0.026-0.115 0.323-0.35 0.6-0.638 0.691-0.016 0.011-0.04 0.028-0.065 0.028-1.152 0.274-3.586-0.749-4.617-1.295-1.435-0.77-3.48-1.721-3.596-0.687-0.116 1.033 1.117 0.653 3.978 2.922l-0.129 0.346c0.196 0.173-2.3-0.319-4.421-1.201-1.461-0.603-1.417 0.556-1.077 0.972 0.338 0.425 1.902 0.82 2.954 1.272 0.699 0.286 1.429 0.585 1.862 0.757l0.017 0.486c-3.166 0.143-3.931-0.829-4.402-0.056-0.464 0.763 1.747 1.509 2.755 1.478 0.438-0.012 1.238 0.166 2.009 0.369-2.402 0.57-3.185-0.017-3.42 0.672-0.239 0.72 1.722 0.945 2.546 0.746" fill="#E9A092"/>
<path d="m278.93 96.395c-5.088 2.382-13.857 32.558-13.857 32.558s-1.349-1.304-1.896-0.365c-0.55 0.943-15.497-3.967-15.497-3.967s3.037 5.326-1.891 9.296c0 0 15.963 7.637 21.349 8.67 5.387 1.025 13.829-25.467 13.829-25.467l-2.037-20.725z" fill="#fff"/>
<path d="m144.51 130.58c-1.604-5.271-6.495-17.314-15.002-22.23l1 18.027s-0.723 2.7 0.896 5.162c3.965 6.032 10.37 10.72 10.37 10.72s5.781 0.05 14.56-1.781c2.757-0.576 8.994-4.628 8.994-4.628l0.489-3.625s-7.738 0.67-10.398 0.68c-1.509 6e-3 -5.02 0.065-7.496 0.111-1.57 0.027-2.969-0.969-3.413-2.436" fill="#C0392C"/>
<path d="m177.03 132.56c-0.929-0.129-1.907-1.346-2.849-1.347l-1.685 7e-3 2.034-0.767c0.523-0.335 0.223-0.823-0.268-0.753l-2.695 0.687c-1.155 0.293-2.246 0.811-3.197 1.533l-0.626 0.471-1.99 0.277-0.502 3.018 0.87-0.019 2.151 0.453c1.578 0.33 3.236 0.19 4.774-0.372 0 0 3.112-1.542 1.36-3.368" fill="#E39963"/>
<polygon points="113.94 235.77 116.76 247.32 120.98 247.3 121.14 235.77" fill="#E39963"/>
<polygon points="131.65 236.22 139.69 247.28 142.81 243.38 137.98 234.7" fill="#E39963"/>
<path d="m128.66 111.44c0.033 0.017-3.393 1.742-5.966 1.058-2.43-0.64-4.011-3.696-3.976-3.706 1.026-0.196 1.321-1.568 1.301-7.461l0.461 0.09 7.803 1.504s-0.176 2.384-0.181 4.634c-6e-3 1.889 0.111 3.676 0.558 3.881" fill="#E39963"/>
<path d="m128.28 102.93s-0.176 2.384-0.181 4.634c-4.365-0.119-6.675-3.991-7.622-6.138l7.803 1.504z" fill="#D68D5C"/>
<path d="m119.68 100.6s-5.054 5.545-5.765-4.394c-0.356-4.967 3.657-12.223 11.879-11.079 0 0 2.388 0.229 4.634 1.704 1.781 1.17 4.359 3.7 1.48 10.638l-0.751 2.348-11.477 0.783z" fill="#19365E"/>
<path d="m143.35 243.85-4.076-0.695-4.412-0.751s-7.796-12.994-9.74-31.704c-0.045-0.436-0.097-0.875-0.158-1.323-1.23-9.435-5.327-21.794-6.593-32.486-0.202-1.703-0.366-3.302-0.499-4.809-0.043-0.483-0.083-0.957-0.12-1.421-0.705-8.961-0.248-14.654 0.34-20.72l22.165 6.914s-2.332 39.493 3.093 86.995" fill="#547CBE"/>
<path d="m136.63 139.6c-0.061 11.581 1.75 16.555 1.75 16.555s-10.724 5.294-23.465 1.395c-0.153-0.048-9.388-1.334-9.388-1.334 0.212-0.468 2.786-8.794 2.99-9.222 2.694-5.616 2.896-8.581 3.217-10.307 0.59-3.224 0.6-6.562 0.306-9.708-0.776-8.324-3.089-15.238-3.089-15.238 3.472-0.768 6.726-2.117 10.337-3.435 0.832 1.006 3.373 2.059 5.579 2.011 2.539-0.054 3.361-1.113 3.229-2.266 2.705 1.465 4.861 2.845 4.861 2.845 2.301 3.885 1.763 8.449 2.101 14.404 0.086 1.465 1.574 13.976 1.572 14.3" fill="#FEFEFE"/>
<path d="m129.74 105.06s-10.332 0.164-10.337-6.093c-0.011-6.252-1.345-10.446 5.25-10.815 6.596-0.37 7.881 2.016 8.405 4.104 0.524 2.087-0.63 12.599-3.318 12.804" fill="#E39963"/>
<path d="m129.36 87.994s-2.826 7.339-7.168 8.427c-4.343 1.084-6.222-0.048-6.222-0.048s3.327-2.569 4.022-7.059c0 0 7.232-4.81 9.368-1.32" fill="#19365E"/>
<path d="m128.66 88.59s2.109 1.638 2.627 3.231c0.515 1.592 0.747 4.873 1.727 4.762 0 0 2.129-4.989-0.263-7.808-2.535-2.995-4.091-0.185-4.091-0.185" fill="#19365E"/>
<path d="m116.61 246.68s0.338 2.292-0.536 4.739c0 0-0.693 3.067 2.41 3.122 3.106 0.057 3.869-0.227 3.519-2.104-0.354-1.883-1.022-5.133-1.022-5.133l-4.371-0.624z" fill="#E39963"/>
<path d="m122.3 255.85s-0.065 0.037-0.193 0.099h-6.078c-0.121-0.062-0.171-0.099-0.171-0.099-0.354-1.539 0.221-4.434 0.221-4.434 3.517 3.137 5.717-0.078 5.717-0.078 0.569 1.338 0.504 4.512 0.504 4.512" fill="#C3C7CE"/>
<path d="m150.3 252.69s-5.724-6.175-7.483-9.315l-4.257 2.117 9.517 8.688 2.225-0.286-2e-3 -1.204z" fill="#E39963"/>
<path d="m153.85 255.9h-7.831c-0.755-0.547-1.459-1.819-2.334-3.521-0.464-0.906-1.516-1.405-2.591-1.679v5.144h-1.628l-1.54-5.469c-1.013-1.811-0.081-3.454 0.634-4.884 0.828-6e-3 3.065 0.549 7.291 5.182 1.391 1.521 2.923 2.063 4.449 2.016 0.025 0.016 0.042 0.026 0.063 0.034 2.552 1.116 3.283 2.502 3.487 3.177" fill="#C3C7CE"/>
<path d="m128.1 108.05s5.975 14.356 6.152 17.257c0.176 2.907 0.704 47.503 0.704 47.503s-0.35 2.05 3.69 1.195c4.043-0.856 5.098-1.709 5.098-1.709s-3.866-27.51-2.815-37.076c1.058-9.57-8.08-25.174-8.08-25.174l-4.749-1.996z" fill="#E84B3D"/>
<path d="m139.28 243.15-4.412-0.751s-7.796-12.994-9.739-31.704c-0.046-0.436-0.098-0.875-0.159-1.322-1.23-9.436-5.327-21.794-6.593-32.487-0.201-1.703-0.366-3.301-0.498-4.808-0.043-0.484-0.083-0.957-0.12-1.422l4.179-1.941s7.209 19.247 7.151 35.981c-0.049 14.538 8.056 33.673 10.191 38.454" fill="#366AB1"/>
<path d="m123.15 206.38c0.062 7.978-0.35 26.312-1.419 33.902h-3.967c-2.191 0-3.284-0.028-3.284-0.028-2.682-13.201-4.589-24.122-5.978-33.533-1.14-7.726-2.151-14.342-2.93-20.04-0.784-5.74-1.331-10.539-1.526-14.598-0.027-0.64-0.05-1.262-0.063-1.867-0.013-0.604-0.014-1.194-9e-3 -1.766l21.635-2.052c-0.271 13.975-2.494 35.348-2.459 39.982" fill="#547CBE"/>
<path d="m117.76 240.28c-2.191 0-3.284-0.028-3.284-0.028-2.682-13.201-4.589-24.122-5.979-33.534-1.139-7.725-2.15-14.341-2.929-20.04-0.785-5.74-1.331-10.539-1.526-14.597l7.941 4.539s-5.068 1.739-3.134 14.894c1.933 13.155 6.219 46.906 8.911 48.766" fill="#366AB1"/>
<path d="m118.78 171.96s-1.525 5.353-6.796 4.669c-5.275-0.684-12.774-3.759-12.774-3.759s2.254-6.923 5.053-16.015c3.399-11.007 7.594-25.2 9.574-34.152 0.554-2.507 0.937-4.601 1.077-6.103l4.373-8.249s6.524 14.229 6.874 17.816c0.351 3.589-7.381 45.793-7.381 45.793" fill="#E84B3D"/>
<path d="m118.55 133.68c-0.239 5.808-1.641 17.086-14.182 23.123-0.032 0.016-0.063 0.031-0.1 0.045 3.398-11.007 7.594-25.199 9.573-34.151 2.305 3.347 4.838 7.785 4.709 10.983" fill="#C0392C"/>
<path d="m289.32 73.533s-1.693 3.857-0.953 11.22c0 0-4.171-7.189-1.298-12.641l2.251 1.421z" fill="#34251E"/>
<path d="m253.36 255.02c0 0.72 0.077 1.224 0.077 1.224h21.357c0-0.411-6e-3 -0.821-0.031-1.224-0.239-5.428-1.472-9.983-1.472-9.983l-5.342-2.384c-0.461 2.674-2.172 4.379-3.659 5.494-0.389 0.301-0.795 0.549-1.22 0.761-0.192 0.104-0.391 0.199-0.596 0.288-0.444 0.196-0.906 0.359-1.364 0.489-1.885 0.559-3.792 0.675-5.124 0.874-2.275 0.346-2.626 2.9-2.626 4.461" fill="#EA5B5B"/>
<path d="m253.36 255.02c0 0.72 0.077 1.224 0.077 1.224h21.357c0-0.411-6e-3 -0.821-0.031-1.224h-21.403z" fill="#FEFEFE"/>
<path d="m291.16 256.74c0.051 0.704 0.239 1.226 0.239 1.226h14.226c0.179-0.407 0.311-0.805 0.4-1.226 1.399-6.615-6.522-14.715-6.522-14.715l-5.348 4.017s1.164 6.103-1.375 7.4c-1.525 0.779-1.721 2.242-1.62 3.298" fill="#EA5B5B"/>
<path d="m306.09 256.74h-14.864c0.052 0.704 0.241 1.226 0.241 1.226h14.225c0.181-0.407 0.311-0.805 0.398-1.226" fill="#FEFEFE"/>
<path d="m306.96 238.3c0.507-14.686 4.132-52.648 4.47-56.045 0.344-3.399 1.677-16.797 1.677-29.95l-36.321 1.307c0.89 7.877-10.025 78.095-10.025 78.095l-1.075 12.844 9.168 2.344 1.483-3.949 15.805-73.453 3.292 0.206s-0.527 63.486-2.237 66.456l-0.123 11.073 12.448 0.58 1.438-9.508z" fill="#4D5164"/>
<path d="m275.57 115.03c-6e-3 0.871-6e-3 1.762 0 2.661 0 1.659 0.023 3.379 0.049 5.109 0.014 0.878 0.025 1.76 0.049 2.648 0.042 2.11 0.097 4.233 0.162 6.313 0.025 0.898 0.054 1.787 0.082 2.667 0.081 2.424 0.176 4.765 0.263 6.944 0.043 0.944 0.083 1.855 0.122 2.723 0.083 1.982 0.171 3.776 0.244 5.3 0.056 1.085 0.102 2.041 0.148 2.832 0.091 1.675 0.147 2.642 0.147 2.642s4.305 4.501 13.781 5.958c16.687 2.567 22.392-5.233 22.392-5.233s0.07-0.615 0.186-1.71c0.082-0.719 0.176-1.651 0.288-2.752 0.148-1.313 0.303-2.871 0.481-4.613 0.085-0.85 0.175-1.741 0.261-2.673 0.192-1.947 0.395-4.052 0.604-6.256 0.076-0.861 0.158-1.738 0.232-2.621 0.162-1.761 0.319-3.579 0.467-5.392 0.077-0.885 0.153-1.775 0.219-2.66 0.166-1.952 0.306-3.907 0.442-5.815 0.058-0.91 0.119-1.801 0.175-2.686 0.137-2.085 0.246-4.101 0.332-5.972 0.042-0.944 0.077-1.848 0.097-2.715 0.059-1.947 0.079-3.688 0.039-5.161-0.025-1.112-0.08-2.071-0.178-2.833-0.098-0.907-0.262-1.544-0.47-1.844-1.625-2.318-5.218-3.393-12.21-5.297-1.778-0.479-3.695-0.795-5.71-0.889-2.725-0.126-5.291-0.144-7.647-0.026-6.076 0.317-10.779 1.57-13.272 4.473-0.071 0.082-0.138 0.159-0.204 0.244-0.334 0.423-0.606 1.33-0.824 2.613-0.222 1.334-0.393 3.085-0.507 5.139-0.053 0.836-0.094 1.728-0.124 2.663-0.067 1.915-0.105 4.012-0.116 6.219" fill="#fff"/>
<path d="m300 93.601c0.76 0.105 2.376 1.114 2.415 1.861 0.128 2.344-4.509 4.291-8.756 3.96-4.246-0.33-4.256-2.57-3.453-3.683 0.828-1.157 2.716-3.135 9.794-2.138" fill="#FEFEFE"/>
<path d="m291.03 88.872 1.505 8.647s2.409 1.344 8.006-1.712c0 0-2.28-6.667 0.594-11.054 0 0-0.633-0.012-1.64 0.027 0 0-1.421 4.956-8.465 4.092" fill="#E9B2AC"/>
<path d="m302.92 80.627c0.303 8.195-11.732 11.722-13.993 7.817-0.724-1.251-1.441-4.726-1.706-7.123-0.063-0.544-0.106-1.092-0.132-1.645-0.17-3.731 0.515-7.445 2.719-8.272 7.683-2.869 12.737-0.826 13.112 9.223" fill="#F7C3BB"/>
<path d="m300.75 80.386s1.658-1.929 3.225-0.773c1.57 1.152-1.008 4.7-2.689 4.589-1.684-0.115-0.536-3.816-0.536-3.816" fill="#F7C3BB"/>
<path d="m304.46 81.316s3.366-12.292-5.505-12.508l-0.82-0.221 0.82-0.701c-7.721-0.269-11.395 2.948-11.395 2.948s-4.162 2.244 3.469 4.668c7.629 2.421 8.952 9.496 8.952 9.496s1.496-5.945 3.163-5.744c1.659 0.202 1.316 2.062 1.316 2.062" fill="#34251E"/>
<polygon points="298.67 97.811 293.24 111.98 291.41 98.949" fill="#FEFEFE"/>
<path d="m113.52 125.63 5.771-17.284c-0.015 5e-3 -7.29 2.105-10.951 3.901 0 0-2.288 2.864-3.705 9.484 0 0-1.498 15.88 1.847 21.689 0 0 10.542 2.051 27.419-3.586v-3.76s-18.458 0.938-22.235 1.365l1.854-11.809z" fill="#E39963"/>
<path d="m119.29 108.35s-10.702 0.732-13.28 6.311c-2.577 5.585-3.398 24.149-0.118 29.618 0 0 4.518 1.252 12.507-0.2 0.097-0.017 0.193-0.04 0.296-0.057 0 0 2.551-6.065 0.266-7.26 0 0-6.743 0.341-6.036-1.823 0.701-2.164 6.365-26.589 6.365-26.589" fill="#E84B3D"/>
<path d="m132.25 139.78 0.853-0.189 2.198 0.032c1.612 0.019 3.212-0.428 4.604-1.277 0 0 2.208 0.351 3.548 0.952 0.452 0.245 0.892-0.484 0.439-0.764l-3.444-1.285 1.964-0.087c0.492-0.03 0.986 0.037 1.456 0.181l1.255 0.392c0.486-0.164 0.782-0.406 0.268-0.882l-1.395-0.512c-0.399-0.149-0.841-0.233-1.269-0.271l-2-0.136 2.641-0.47 2.176-0.199c0.41-0.046 0.508-0.773-0.07-0.817l-2.545 0.105-2.373 0.228 3.825-0.661c0.489-0.166 0.425-0.798-0.018-0.853l-1.465 0.076c-0.941 0.048-1.881 0.163-2.8 0.34l-1.651 0.328 1.839-1.141c0.444-0.43 0.05-0.852-0.415-0.689l-2.506 1.191c-1.071 0.51-2.034 1.227-2.818 2.117l-0.519 0.578-3.654 0.853 1.876 2.86z" fill="#E39963"/>
<path d="m303.78 132.78c-1.798-0.027-2.818 8.019 0.703 8.866 0 0 4.217-8.783-0.703-8.866" fill="#2E0C1B"/>
<path d="m303.86 140.04c-0.772 0.301-6.168 2.165-7.238 2.02-0.036-1e-3 -0.077-8e-3 -0.12-0.017-1.042-0.196-2.203-1.189-2.936-1.441-0.757-0.269-1.019-0.97-1.676-1.449-0.671-0.474-1.08-1.926-1.08-1.926s-2.249-1.959-1.306-2.222c1.175-0.321 2.501 0.823 2.501 0.823l2.911 0.485s3.496-1.341 3.346-2.024c-0.15-0.68-1.595-0.121-2.859-0.224-0.836-0.062-0.899-0.95-0.899-0.95l2.155-0.525s3.143-0.496 3.818-0.227c0.674 0.267 3.161 1.794 3.161 1.794l4.655-0.097 0.902 5.913s-4.566-0.243-5.335 0.067" fill="#F7C3BB"/>
<path d="m316.18 99.886c-4.792 2.45-6.491 12.653-5.978 16.791l5.273 13.62s-1.037 1.839-0.187 2.168l-11.504 0.312s2.942 2.983 0.703 8.866c0 0 15.035 4.379 21.478 0 1.863-1.268 2.862-4.883 2.397-7.524-3.3-18.659-12.182-34.233-12.182-34.233" fill="#fff"/>
<path d="m171.91 133.38s0.017-0.097 0.121-0.189c0.082-0.072 0.21-0.144 0.43-0.169 0.35-0.042 0.707-0.046 0.882-0.042 0.178-4e-3 0.538 0 0.889 0.042 0.213 0.025 0.345 0.097 0.426 0.169 0.106 0.092 0.12 0.189 0.12 0.189s0.193 1.812 0.244 2.482c-0.029 0.819-0.086 1.807-0.167 2.298-0.081 0.532-0.197 0.762-0.454 0.856-0.344 0.056-0.813 0.057-1.008 0.056h-8e-3 -0.042-0.038-0.01c-0.193 1e-3 -0.663 0-1.003-0.056-0.264-0.094-0.375-0.324-0.458-0.856-0.081-0.491-0.139-1.479-0.165-2.298 0.049-0.67 0.241-2.482 0.241-2.482" fill="#2F2D2A"/>
<path d="m172.79 133.79c0 0.216 0.112 0.342 0.334 0.342h0.448c0.224 0 0.342-0.126 0.342-0.342v-0.75c0-0.217-0.118-0.442-0.342-0.442h-0.448c-0.222 0-0.334 0.225-0.334 0.442v0.75zm0.281-1.316h0.548c0.275 0 0.499 0.215 0.499 0.484v0.914c0 0.266-0.224 0.482-0.499 0.482h-0.548c-0.273 0-0.493-0.216-0.493-0.482v-0.914c0-0.269 0.22-0.484 0.493-0.484z" fill="#2F2D2A"/>
<path d="m172.49 138.47c0.026-0.016 0.061-0.022 0.092-0.022 0.116 0 0.21 0.092 0.21 0.205 0 0.079-0.047 0.15-0.116 0.181 7e-3 -0.024 0.011-0.052 0.011-0.08 0-0.129-0.083-0.239-0.197-0.284" fill="#CACCCF"/>
<path d="m172.37 138.65c0-0.081 0.048-0.149 0.117-0.183 0.114 0.045 0.197 0.156 0.197 0.285 0 0.028-3e-3 0.055-0.011 0.08-0.032 0.014-0.06 0.022-0.094 0.022-0.115 0-0.209-0.09-0.209-0.204" fill="#EAEAEA"/>
<path d="m173.35 132.13c0.818 0 1.486-0.646 1.486-1.444 0-0.796-0.668-1.442-1.486-1.442-0.814 0-1.479 0.646-1.479 1.442 0 0.798 0.665 1.444 1.479 1.444m0-3.03c0.906 0 1.634 0.711 1.634 1.586 0 0.877-0.728 1.586-1.634 1.586-0.898 0-1.629-0.709-1.629-1.586 0-0.875 0.731-1.586 1.629-1.586" fill="#CACCCF"/>
<path d="m173.35 132.09c0.804 0 1.451-0.628 1.451-1.408 0-0.779-0.647-1.409-1.451-1.409-0.798 0-1.449 0.63-1.449 1.409 0 0.78 0.651 1.408 1.449 1.408m0-2.85c0.818 0 1.486 0.646 1.486 1.442 0 0.798-0.668 1.444-1.486 1.444-0.814 0-1.479-0.646-1.479-1.444 0-0.796 0.665-1.442 1.479-1.442" fill="#B0ADAD"/>
<polygon points="177.28 132.67 178.35 133.89 178.33 133.95 179.21 134.9 179.19 134.96 179.25 135.01 179.3 135.3 179.21 135.39 178.96 135.32 178.89 135.27 178.82 135.28 177.97 134.38 177.86 134.38 176.68 133.14" fill="#CACCCF"/>
<polygon points="176.1 132.09 179.22 135.38 179.29 135.32 176.17 132.03" fill="#EAEAEA"/>
<path d="m175.12 131.78c0.062 0.07 0.107 9e-3 0.185-0.05l0.689-0.566c0.074-0.059 0.147-0.095 0.087-0.163-0.064-0.073-0.235-0.153-0.305-0.091l-0.694 0.562c-0.076 0.059-0.023 0.237 0.038 0.308m0.14-0.711c0.23-0.197 0.471-0.42 0.808-0.384 0.293 0.032 1.435 0.774 1.454 1.288 0.021 0.517-0.479 0.977-0.479 0.977-0.11 0.115-0.263 0.256-0.766 0.43-0.507 0.174-0.932-0.336-1.386-1.062-0.45-0.724 0.139-1.057 0.369-1.249" fill="#2F2D2A"/>
<path d="m175.31 131.55c0.054 0.066 0.126 0.045 0.192-8e-3l0.212-0.164c0.065-0.05 0.099-0.112 0.048-0.178-0.053-0.067-0.179-0.108-0.243-0.054l-0.209 0.163c-0.069 0.049-0.054 0.178 0 0.241m-0.234-0.077 0.694-0.563c0.069-0.061 0.241 0.019 0.305 0.091 0.059 0.069-0.013 0.105-0.087 0.163l-0.69 0.567c-0.077 0.058-0.122 0.12-0.184 0.049-0.061-0.071-0.115-0.249-0.038-0.307" fill="#44413F"/>
<path d="m175.9 132.75c0.168 0.176 0.636 0.203 0.814 0.037l0.211-0.189c0.177-0.163 0.168-0.613 0-0.791-0.171-0.171-0.297-0.022-0.479 0.142l-0.374 0.343c-0.18 0.166-0.343 0.282-0.172 0.458" fill="#44413F"/>
<path d="m174.59 131.09c-0.012 0.041 0.019 0.086 0.062 0.1l0.731 0.195c0.05 0.014 0.098-0.012 0.11-0.054 0.012-0.043-0.016-0.085-0.064-0.1l-0.729-0.195c-0.051-0.014-0.096 0.014-0.11 0.054" fill="#B0ADAD"/>
<path d="m173.24 132.69c0 0.056 0.048 0.104 0.104 0.104 0.06 0 0.109-0.048 0.109-0.104v-0.688c0-0.057-0.049-0.106-0.109-0.106-0.056 0-0.104 0.049-0.104 0.106v0.688z" fill="#B0ADAD"/>
<path d="m172.19 134.32c0-0.278 0.229-0.5 0.511-0.5h1.303c0.283 0 0.513 0.222 0.513 0.5v3.419c0 0.273-0.23 0.499-0.513 0.499h-1.303c-0.282 0-0.511-0.226-0.511-0.499v-3.419z" fill="#363230"/>
<path d="m172.4 134.89c0 0.054 0.044 0.101 0.099 0.101h1.7c0.056 0 0.101-0.047 0.101-0.101v-0.673c0-0.054-0.045-0.1-0.101-0.1h-1.7c-0.055 0-0.099 0.046-0.099 0.1v0.673z" fill="#44413F"/>
<path d="m172.4 134.92c0 0.057 0.044 0.099 0.099 0.099h1.7c0.056 0 0.101-0.042 0.101-0.099v-0.674c0-0.055-0.045-0.095-0.101-0.095h-1.7c-0.055 0-0.099 0.04-0.099 0.095v0.674z" fill="#2F2D2A"/>
<path d="m175.9 132.76c0.171 0.174 0.642 0.201 0.816 0.039l0.209-0.192c0.18-0.163 0.169-0.613 0-0.787-0.171-0.175-0.298-0.025-0.48 0.138l-0.372 0.343c-0.181 0.168-0.342 0.283-0.173 0.459" fill="#363230"/>
<polygon points="172.37 135.72 174.32 135.72 174.32 135.52 172.37 135.52" fill="#44413F"/>
<polygon points="172.37 137.15 174.32 137.15 174.32 136.95 172.37 136.95" fill="#44413F"/>
<polygon points="172.37 135.73 174.32 135.73 174.32 135.53 172.37 135.53" fill="#2F2D2A"/>
<polygon points="172.37 137.16 174.32 137.16 174.32 136.97 172.37 136.97" fill="#2F2D2A"/>
<path d="m173.15 134.57v-0.125c0-0.081 0.068-0.147 0.152-0.147h0.029c0.081 0 0.149 0.066 0.149 0.147v0.125h-0.33zm0.181-0.289h-0.029c-0.025 0-0.048 3e-3 -0.065 0.012-0.021 7e-3 -0.04 0.022-0.055 0.036-0.014 0.014-0.024 0.032-0.032 0.053-0.013 0.019-0.017 0.041-0.017 0.063v0.146h0.366v-0.146c0-0.022-2e-3 -0.044-0.013-0.063-9e-3 -0.021-0.023-0.039-0.034-0.053-0.016-0.014-0.032-0.029-0.057-0.036-0.016-9e-3 -0.039-0.012-0.064-0.012z" fill="#CACCCF"/>
<path d="m173.35 134.84c0.045 0.043 0.114 0.039 0.154-2e-3l9e-3 -8e-3c0.04-0.044 0.04-0.109-4e-3 -0.15l-0.104-0.094 0.023-1e-3 0.093 0.083c0.022 0.023 0.038 0.053 0.038 0.086 0 0.03-0.012 0.064-0.034 0.086l-4e-3 8e-3c-0.024 0.023-0.057 0.039-0.089 0.039-0.035 0-0.064-0.011-0.094-0.034l-0.087-0.083 0.012-0.013 0.087 0.083z" fill="#CACCCF"/>
<path d="m173.32 134.52c-0.02 0-0.038-0.019-0.038-0.038 0-0.01 8e-3 -0.022 0.018-0.031v-4e-3 -0.058c0-0.011 0.01-0.018 0.02-0.018 0.012 0 0.025 7e-3 0.025 0.018v0.058l2e-3 4e-3c0.011 9e-3 0.015 0.021 0.015 0.031 0 0.019-0.017 0.038-0.042 0.038m0-0.166c-0.02 0-0.038 0.017-0.038 0.035v0.05c-0.012 0.012-0.017 0.027-0.017 0.043 0 0.031 0.028 0.056 0.055 0.056 0.032 0 0.059-0.025 0.059-0.056 0-0.016-5e-3 -0.031-0.017-0.043v-0.05c0-0.018-0.017-0.035-0.042-0.035" fill="#CACCCF"/>
<path d="m173.15 137.69v-0.152c0-0.097 0.083-0.176 0.181-0.176h0.038c0.099 0 0.179 0.079 0.179 0.176v0.152h-0.398zm0.219-0.352h-0.038c-0.028 0-0.052 5e-3 -0.078 0.018-0.023 0.01-0.047 0.023-0.066 0.044-0.016 0.016-0.032 0.038-0.045 0.061-9e-3 0.026-0.015 0.049-0.015 0.077v0.174h0.448v-0.174c0-0.028-8e-3 -0.051-0.021-0.077-0.01-0.023-0.023-0.045-0.04-0.061-0.023-0.021-0.046-0.034-0.068-0.044-0.025-0.013-0.05-0.018-0.077-0.018z" fill="#EAEAEA"/>
<path d="m173.21 137.86c0 0.068 0.057 0.127 0.132 0.127h0.013c0.069 0 0.127-0.056 0.127-0.127v-0.165l0.026 0.02v0.145c0 0.041-0.02 0.076-0.045 0.104-0.028 0.028-0.069 0.045-0.108 0.045h-0.013c-0.045-2e-3 -0.08-0.017-0.109-0.045-0.03-0.031-0.044-0.066-0.044-0.104l3e-3 -0.147h0.018v0.147z" fill="#EAEAEA"/>
<path d="m173.35 137.63c-0.023 0-0.044-0.021-0.044-0.044 0-0.014 6e-3 -0.027 0.016-0.037l5e-3 -2e-3v-0.072c0-0.011 0.011-0.026 0.023-0.026 0.017 0 0.028 0.015 0.028 0.026v0.072l2e-3 2e-3c0.015 0.01 0.021 0.023 0.021 0.037 0 0.023-0.023 0.044-0.051 0.044m0-0.199c-0.023 0-0.044 0.018-0.044 0.044v0.06c-0.012 0.014-0.022 0.034-0.022 0.051 0 0.036 0.031 0.066 0.066 0.066 0.042 0 0.069-0.03 0.069-0.066 0-0.017-5e-3 -0.037-0.02-0.051v-0.06c0-0.026-0.021-0.044-0.049-0.044" fill="#EAEAEA"/>
<path d="m173.87 136.21h-0.192v-0.016c0-0.038-0.034-0.072-0.076-0.072-0.044 0-0.078 0.034-0.078 0.072v0.016h-0.363v-0.016c0-0.038-0.033-0.072-0.077-0.072-0.038 0-0.072 0.034-0.072 0.072v0.016h-0.186v0.108h0.241l0.144 0.14h0.362l0.105-0.14h0.192v-0.108zm-0.156 0.132 0.166 0.152-0.016 0.018-0.177-0.163-0.103 0.132h-0.384l-0.141-0.139h-0.26v-0.158h0.188c8e-3 -0.049 0.048-0.086 0.097-0.086 0.053 0 0.098 0.037 0.101 0.086h0.317c0.011-0.049 0.051-0.086 0.1-0.086 0.05 0 0.095 0.037 0.098 0.086h0.194v0.158h-0.18z" fill="#EAEAEA"/>
</g>
<g transform="translate(173 254)">
<path d="m594.5 706.48c0 6.622-133.08 11.99-297.25 11.99-164.16 0-297.25-5.368-297.25-11.99 0-6.623 133.08-11.992 297.25-11.992 164.17 0 297.25 5.369 297.25 11.992" fill="#ECECEC"/>
<polygon points="447.44 104.36 412.22 147.38 444.62 170.59 466.51 112.2" fill="#F8C9C2"/>
<path d="m424.55 122.55h20.446c1.208 0 2.47-0.976 2.806-2.184l12.481-43.34c0.346-1.208-0.364-2.188-1.572-2.188h-20.442c-1.211 0-2.469 0.98-2.808 2.188l-12.491 43.34c-0.337 1.208 0.367 2.184 1.58 2.184" fill="#EEA783"/>
<path d="m427.54 122.55h20.448c1.208 0 2.464-0.976 2.804-2.184l12.486-43.34c0.342-1.208-0.364-2.188-1.577-2.188h-20.446c-1.21 0-2.463 0.98-2.807 2.188l-12.489 43.34c-0.336 1.208 0.375 2.184 1.581 2.184" fill="#212237"/>
<path d="m469.85 99.902c-0.62-7.804-5.857-15.066-13.071-18.122-4.708-2-11.068-1.807-13.943 2.42-2.218 3.258-1.273 8.216 1.962 10.471-3.1 3.639-2.033 9.11-0.788 13.723 0.749 2.773 1.495 5.547 2.246 8.32 0.659 2.464 1.505 5.169 3.707 6.474 10.393 6.151 20.462-15.931 19.887-23.286" fill="#F8C9C2"/>
<path d="m303.7 26.396s10.042 70.933 7.928 72.676c-2.116 1.742-0.485-0.419-3.82 5.313s-24.545-11.49-24.545-11.49l1.16-37.971 19.277-28.528z" fill="#212237"/>
<polygon points="229.82 615.76 242.66 669.83 261.89 669.72 262.6 615.76" fill="#F8C9C2"/>
<polygon points="310.42 617.88 346.95 669.64 361.19 651.36 339.2 610.75" fill="#F8C9C2"/>
<path d="m363.63 653.55-38.607-6.755s-35.455-60.798-44.3-148.35c-0.208-2.036-0.447-4.1-0.716-6.194-5.609-44.145-24.227-101.96-29.987-152-0.916-7.966-1.675-15.444-2.28-22.502-0.194-2.262-0.379-4.481-0.542-6.662-3.207-41.906-1.132-68.555 1.562-96.927l100.8 32.344s-10.605 184.79 14.067 407.04" fill="#333"/>
<path d="m242.01 666.81s1.548 10.711-2.449 22.17c0 0-3.149 14.343 10.974 14.609 14.125 0.266 17.588-1.068 15.992-9.858-1.6-8.795-4.642-24.008-4.642-24.008l-19.875-2.913z" fill="#F8C9C2"/>
<path d="m267.86 709.72s-0.306 0.181-0.885 0.466h-27.645c-0.537-0.285-0.785-0.466-0.785-0.466-1.597-7.2 1.013-20.738 1.013-20.738 15.995 14.66 25.999-0.362 25.999-0.362 2.605 6.26 2.303 21.1 2.303 21.1" fill="#020203"/>
<path d="m395.22 694.97s-26.038-28.904-34.034-43.609l-19.362 9.921 43.285 40.644 10.123-1.328-0.012-5.628z" fill="#F8C9C2"/>
<path d="m411.38 709.98h-35.632c-3.433-2.563-6.634-8.5-10.62-16.471-2.124-4.242-6.887-6.586-11.794-7.868v24.071h-7.392l-6.997-25.587c-4.595-8.475-0.363-16.158 2.884-22.846 3.771-0.015 13.924 2.568 33.155 24.246 6.327 7.116 13.312 9.662 20.239 9.441 0.102 0.059 0.192 0.116 0.287 0.146 11.6 5.218 14.923 11.709 15.87 14.868" fill="#020203"/>
<path d="m345.09 650.31-20.068-3.511s-35.454-60.798-44.3-148.34c-0.208-2.037-0.446-4.101-0.716-6.195-5.609-44.145-24.227-101.96-29.987-152-0.916-7.966-1.675-15.444-2.28-22.502-0.193-2.262-0.379-4.481-0.542-6.662l19.001-9.072s32.816 90.053 32.537 168.36c-0.227 68.018 36.64 157.56 46.355 179.93" fill="#222323"/>
<path d="m271.72 478.27c0.284 37.32-1.602 123.12-6.461 158.64h-18.037c-9.967 0-14.942-0.147-14.942-0.147-12.192-61.757-20.87-112.86-27.181-156.89-5.182-36.136-9.782-67.115-13.33-93.776-3.565-26.842-6.041-49.313-6.926-68.303-0.135-2.991-0.245-5.9-0.299-8.726-0.052-2.834-0.07-5.594-0.046-8.268l98.409-9.597c-1.237 65.387-11.353 165.38-11.187 187.07" fill="#333"/>
<path d="m247.23 636.91c-9.968 0-14.943-0.146-14.943-0.146-12.191-61.757-20.869-112.86-27.18-156.89-5.182-36.136-9.782-67.114-13.331-93.775-3.565-26.842-6.04-49.314-6.926-68.303l36.111 21.241s-23.05 8.131-14.26 69.69c8.795 61.556 28.286 219.47 40.529 228.19" fill="#222323"/>
<path d="m256.05 56.729s-8.098-12.798-10.042-23.734c-1.382-7.807 2.589-36.755 31.678-32.586 0 0 8.447 0.836 16.392 6.195 6.312 4.269 15.43 13.475 5.239 38.732l-2.656 8.534-40.611 2.859z" fill="#212237"/>
<path d="m255.72 65.038-3.284 28.138s10.507 11.351 26.402 11.351 15.895-10.598 15.895-10.598l-3.021-24.222-24.44-25.643-11.552 20.974" fill="#F8C9C2"/>
<path d="m298.28 27.324s8.4 32.036 3.787 38.601c-6.909 9.838-23.359 10.598-30.287 6.054-5.814-3.811-10.581-24.218-10.581-29.517 0-14.38 29.517-22.71 37.081-15.138" fill="#F8C9C2"/>
<path d="m285.38 75.206c3.84 0 6.763-0.556 6.997-0.607l-0.343-1.73c-0.101 0.024-10.81 2.065-18.028-1.814-5.586-2.995-7.702-10.062-7.721-10.132l-1.699 0.493c0.092 0.318 2.33 7.845 8.582 11.193 3.846 2.065 8.467 2.597 12.212 2.597" fill="#F4A694"/>
<path d="m297.34 58.63-13.618 1.906s2.593 7.031 10.005 5.472c5.276-1.11 3.613-7.378 3.613-7.378" fill="#FEFEFE"/>
<path d="m293.95 87.686c16.413 1.478 34.121 9.465 44.97 23.478 18.276 23.593 41.448 53.46 41.448 53.46l37.986-38.831 35.756 29.795s-49.499 69.811-74.048 69.975c-22.069 0.145-59.344-31.519-70.146-48.573-21.733-34.3-15.966-89.304-15.966-89.304" fill="#80A6D7"/>
<path d="m253.49 84.247s4.566 6.739 23.062 8.643c13.98 1.44 17.395-5.204 17.395-5.204s33.745 17.971 43.754 92.433c10.013 74.458 10.99 113.44 10.99 113.44h-158.43s-0.531-56.643 4.099-105.34c4.764-50.063 15.278-92.38 59.129-103.97" fill="#FEFEFE"/>
<path d="m293.95 87.686c32.475 62.403 34.635 216.17 34.635 216.17h24.846s-1.161-99.678-19.938-164.69c-7.981-27.618-28.468-49.512-39.543-51.479" fill="#80A6D7"/>
<path d="m346.3 212.35 1.761-0.16c-0.23-2.47-5.664-60.74-16.433-81.259l-1.566 0.818c10.614 20.215 16.186 80.002 16.238 80.601" fill="#FEFEFE"/>
<path d="m254.09 84.239c19.494 42.001 2.209 219.62 2.209 219.62h-75.422s3.57-65.068 6.692-90.327c3.125-25.256 23.655-106.25 23.655-106.25l42.866-23.035z" fill="#80A6D7"/>
<path d="m226.7 173.91s-19.998 35.043-18.829 43.131c0.878 6.104 55.392 20.101 55.392 20.101l-2.464 34.326s-91.194-7.75-101.8-26.039c-14.499-25.036 25.66-89.844 25.66-89.844" fill="#F8C9C2"/>
<path d="m254.09 84.239c-21.311 3.447-47.801 10.091-58.569 24.137-16.524 21.551-60.613 111.76-44.289 133.88 13.884 18.811 90.921 33.062 90.921 33.062l20.762-42.478-52.659-19.647 32.758-71.462" fill="#80A6D7"/>
<polygon points="262.61 233.66 263.22 232 211.45 212.69 237.46 155.96 235.85 155.22 209.05 213.68" fill="#FEFEFE"/>
<polygon points="241.94 276.18 242.36 274.46 183.95 260.2 183.53 261.92" fill="#FEFEFE"/>
<path d="m261.02 236.69c7.482 1.314 38.507 7.694 38.04 9.686-0.451 1.92-12.017 1.543-11.669 2.639 0.483 1.549 9.04 3.62 13.94 4.342 4.378 0.639 11.293 2.39 11.26 4.329-0.059 3.686-24.005-0.142-24.005-0.142s26.522-0.695 26.783 2.393c0.389 4.454-27.714 4.143-28.702 5.112 0 0 24.44-6.489 24.728-3.193 0.28 3.302-21.4 9.636-28.093 9.172 5.564-0.652 22.548-8.925 22.676-5.881 0.128 3.038-14.577 7.326-16.929 7.499-19.333 1.467-36.862-2.728-36.862-2.728" fill="#F8C9C2"/>
<path d="m293.16 24.35s-10.009 26.713-25.365 30.665c-15.354 3.949-22.016-0.165-22.016-0.165s11.772-9.358 14.225-25.696c0 0 25.606-17.514 33.156-4.804" fill="#212237"/>
<path d="m288.33 17.295s7.476 5.964 9.296 11.758c1.824 5.797 2.641 17.734 6.12 17.331 0 0 7.538-18.157-0.933-28.427-8.985-10.893-14.483-0.662-14.483-0.662" fill="#212237"/>
<path d="m252.93 9.9074s-82.741 71.883-10.179 83.604c72.561 11.72 15.688-51.776 15.688-51.776l-5.509-31.828z" fill="#212237"/>
</g>
</g>
</svg>
