<?xml version="1.0" encoding="UTF-8"?>
<svg width="286px" height="264px" viewBox="0 0 286 264" version="1.1" xmlns="http://www.w3.org/2000/svg" xmlns:xlink="http://www.w3.org/1999/xlink">
    <!-- Generator: Sketch 53.2 (72643) - https://sketchapp.com -->
    <title>Group</title>
    <desc>Created with Sketch.</desc>
    <defs>
        <path d="M0.2,1.16472727 C0.2,1.16472727 1.58484211,4.40872727 5.54357895,3.68945455 L5.54357895,3.68945455 C8.36210526,3.17709091 7.47326316,0.286181818 7.47326316,0.286181818 L7.47326316,0.286181818 L0.2,1.16472727 Z" id="path-1"></path>
    </defs>
    <g id="Page-1" stroke="none" stroke-width="1" fill="none" fill-rule="evenodd">
        <g id="Group" transform="translate(0.382084, 0.177613)">
            <path d="M272.388916,137.593387 C272.388916,207.181104 215.978108,263.593387 146.389653,263.593387 C76.8019365,263.593387 20.3889156,207.181104 20.3889156,137.593387 C20.3889156,68.0056703 76.8019365,11.5933871 146.389653,11.5933871 C215.978108,11.5933871 272.388916,68.0056703 272.388916,137.593387" id="Fill-3-Copy" fill="#DBFDC7"></path>
            <path d="M160.460716,12.4585871 C160.460716,12.4585871 157.784716,17.0895871 152.503716,19.0655871 C147.217716,21.0405871 145.647716,24.7865871 145.647716,24.7865871 C145.647716,24.7865871 144.602716,21.8195871 140.181716,21.8275871 C135.755716,21.8365871 144.533716,31.3075871 144.533716,31.3075871 L140.838716,39.3895871 C140.838716,39.3895871 137.834716,51.8635871 132.173716,53.3655871 C126.516716,54.8695871 124.438716,53.7125871 124.554716,46.2055871 C124.665716,38.6975871 119.701716,18.0235871 138.065716,5.20658714 C156.430716,-7.61441286 164.609716,6.54758714 160.460716,12.4585871" id="Fill-9-Copy" fill="#2E0C1B"></path>
            <path d="M171.335716,49.2441871 C171.335716,49.2441871 205.592716,55.4711871 217.790716,55.4711871 C229.986716,55.4711871 251.461716,54.1731871 258.662716,54.1731871 C265.860716,54.1731871 277.539716,53.2651871 282.795716,55.4711871 C288.051716,57.6771871 283.964716,58.2611871 274.037716,58.8451871 C264.111716,59.4281871 279.682716,61.1821871 276.376716,61.9591871 C273.062716,62.7361871 271.118716,61.5711871 265.279716,61.9591871 C259.439716,62.3481871 231.221716,65.4621871 222.463716,66.2411871 C213.703716,67.0181871 212.339716,64.6851871 203.970716,66.2411871 C195.603716,67.7971871 175.943716,73.0521871 175.360716,73.0521871 C174.776716,73.0521871 171.335716,61.1471871 171.335716,61.1471871 L171.335716,49.2441871 Z" id="Fill-11-Copy" fill="#F4AEAB"></path>
            <path d="M120.243916,76.7036871 L117.166916,71.1056871 C117.166916,71.1056871 88.5569156,70.7166871 77.2689156,71.1056871 C65.9809156,71.4936871 35.0309156,69.9806871 31.7269156,70.9326871 C28.4139156,71.8836871 20.4359156,71.6916871 24.3289156,69.7446871 C28.2219156,67.7966871 19.0759156,68.1876871 15.1819156,68.1876871 C11.2889156,68.1876871 11.0949156,63.7086871 23.5529156,63.3206871 C36.0089156,62.9316871 60.5299156,60.2086871 70.2599156,58.8456871 C79.9939156,57.4836871 88.1679156,57.4836871 88.1679156,57.4836871 L122.813916,49.2446871 L126.981916,58.8456871 L131.570916,73.0526871 L120.243916,76.7036871 Z" id="Fill-13-Copy" fill="#F4AEAB"></path>
            <path d="M126.118916,49.2441871 C126.118916,49.2441871 134.486916,48.9181871 136.433916,44.6371871 C138.381916,40.3541871 138.381916,38.2131871 138.381916,38.2131871 L142.661916,31.7891871 C142.661916,31.7891871 136.892916,27.3751871 138.966916,22.4491871 C141.070916,17.4481871 145.646916,24.7861871 145.646916,24.7861871 L147.935916,19.3361871 C147.935916,19.3361871 150.252916,8.63018714 156.480916,9.01918714 C162.710916,9.40818714 170.104916,36.0751871 156.480916,39.5771871 C156.480916,39.5771871 160.416916,48.3481871 169.134916,49.2441871 L171.335916,59.6231871 L164.072916,73.0521871 L136.161916,71.5831871 L126.118916,53.2011871" id="Fill-15-Copy" fill="#F4AEAB"></path>
            <path d="M225.964616,225.447887 C225.964616,225.447887 241.535616,157.326887 233.359616,151.489887 C225.185616,145.649887 174.776616,123.461887 174.776616,123.461887 L118.530616,123.461887 C118.530616,123.461887 90.8926156,153.564887 75.0626156,168.876887 C59.2336156,184.187887 18.2336156,220.258887 18.2336156,220.258887 C18.2336156,220.258887 22.1246156,227.526887 31.2046156,223.892887 C40.2906156,220.258887 66.4976156,201.054887 82.8486156,193.529887 C99.1966156,186.001887 145.647616,159.273887 149.280616,146.820887 C149.280616,146.820887 175.233616,172.767887 210.264616,169.912887 C210.264616,169.912887 207.929616,203.907887 213.380616,225.447887 C213.380616,225.447887 218.047616,229.080887 225.964616,225.447887" id="Fill-17-Copy" fill="#242C55"></path>
            <path d="M225.964616,225.447887 C225.964616,225.447887 225.389616,232.970887 235.734616,235.568887 C246.075616,238.161887 254.382616,238.682887 252.824616,241.536887 C251.268616,244.390887 245.610616,244.910887 239.485616,243.353887 C233.359616,241.797887 225.058616,244.561887 221.424616,244.217887 C217.790616,243.873887 213.380616,242.056887 213.380616,236.605887 L213.380616,225.447887 C213.380616,225.447887 222.463616,224.149887 225.964616,225.447887" id="Fill-19-Copy" fill="#F4AEAB"></path>
            <path d="M18.2331156,220.258387 C18.2331156,220.258387 1.75211556,235.177387 0.391115559,237.125387 C-0.972884441,239.071387 1.16911556,241.211387 7.78911556,241.211387 C14.4031156,241.211387 14.4691156,240.239387 18.2331156,236.541387 C21.9941156,232.843387 19.4631156,233.491387 22.1891156,230.734387 C24.9131156,227.977387 28.7151156,224.653387 28.7151156,224.653387 L18.2331156,220.258387 Z" id="Fill-21-Copy" fill="#F4AEAB"></path>
            <path d="M174.777116,123.461987 C174.777116,123.461987 167.704116,94.9179871 170.041116,92.0629871 C172.380116,89.2059871 180.163116,80.6439871 176.269116,67.4079871 C172.380116,54.1729871 171.336116,49.2439871 171.336116,49.2439871 L167.704116,49.2439871 C167.704116,49.2439871 177.568116,66.1119871 151.617116,66.1119871 C125.668116,66.1119871 126.982116,49.2439871 126.982116,49.2439871 L121.775116,49.2439871 C121.775116,49.2439871 128.779116,64.0349871 125.406116,70.0039871 C122.035116,75.9709871 119.437116,77.2699871 119.437116,77.2699871 C119.437116,77.2699871 131.375116,92.8399871 118.531116,123.461987 L174.777116,123.461987 Z" id="Fill-23-Copy" fill="#547CBE"></path>
            <path d="M156.481216,39.5772871 C156.481216,39.5772871 150.791216,39.8262871 146.726216,35.8092871 C146.726216,35.8092871 147.678216,44.3862871 153.918216,45.0782871 C160.152216,45.7722871 158.780216,43.1812871 158.780216,43.1812871 L156.481216,39.5772871 Z" id="Fill-25-Copy" fill="#E49090"></path>
            <g id="Group-286-Copy-2" transform="translate(156.207555, 29.172740) rotate(9.000000) translate(-156.207555, -29.172740) translate(152.207555, 27.172740)">
                <mask id="mask-2" fill="white">
                    <use xlink:href="#path-1"></use>
                </mask>
                <g id="Clip-285"></g>
                <polygon id="Fill-284" fill="#FEFEFE" mask="url(#mask-2)" points="-1.90526316 5.61163636 9.71157895 5.61163636 9.71157895 -1.53236364 -1.90526316 -1.53236364"></polygon>
            </g>
        </g>
    </g>
</svg>