<?xml version="1.0" encoding="UTF-8"?>
<svg width="867px" height="247px" viewBox="0 0 867 247" version="1.1" xmlns="http://www.w3.org/2000/svg" xmlns:xlink="http://www.w3.org/1999/xlink">
    <!-- Generator: Sketch 53.2 (72643) - https://sketchapp.com -->
    <title>Group 6</title>
    <desc>Created with Sketch.</desc>
    <g id="Page-1" stroke="none" stroke-width="1" fill="none" fill-rule="evenodd">
        <g id="Artboard" transform="translate(-1107.000000, -1475.000000)" fill="#FFFFFF">
            <g id="Group-6" transform="translate(1110.400000, 1478.100000)">
                <text id="Certify" font-family="LucidaGrande-Bold, Lucida Grande" font-size="160" font-weight="bold">
                    <tspan x="308" y="187">Certify</tspan>
                </text>
                <g id="Group" transform="translate(0.000000, 0.000000)" fill-rule="nonzero" stroke="#FFFFFF" stroke-width="6">
                    <path d="M177.757905,29.64 C176.797905,29.64 175.837905,29.4 174.997905,28.92 C151.957905,17.04 132.037905,12 108.157905,12 C84.3979053,12 61.8379053,17.64 41.3179053,28.92 C38.4379053,30.48 34.8379053,29.4 33.1579053,26.52 C31.5979053,23.64 32.6779053,19.92 35.5579053,18.36 C57.8779053,6.24 82.3579053,3.99680289e-14 108.157905,3.99680289e-14 C133.717905,3.99680289e-14 156.037905,5.64 180.517905,18.24 C183.517905,19.8 184.597905,23.4 183.037905,26.28 C181.957905,28.44 179.917905,29.64 177.757905,29.64 L177.757905,29.64 Z" id="Path"></path>
                    <path d="M6.03790526,92.64 C4.83790526,92.64 3.63790526,92.28 2.55790526,91.56 C-0.202094735,89.64 -0.802094735,85.92 1.11790526,83.16 C12.9979053,66.36 28.1179053,53.16 46.1179053,43.92 C83.7979053,24.48 132.037905,24.36 169.837905,43.8 C187.837905,53.04 202.957905,66.12 214.837905,82.8 C216.757905,85.44 216.157905,89.28 213.397905,91.2 C210.637905,93.12 206.917905,92.52 204.997905,89.76 C194.197905,74.64 180.517905,62.76 164.317905,54.48 C129.877905,36.84 85.8379053,36.84 51.5179053,54.6 C35.1979053,63 21.5179053,75 10.7179053,90.12 C9.75790526,91.8 7.95790526,92.64 6.03790526,92.64 L6.03790526,92.64 Z" id="Path"></path>
                    <path d="M81.0379053,237.48 C79.4779053,237.48 77.9179053,236.88 76.8379053,235.68 C66.3979053,225.24 60.7579053,218.52 52.7179053,204 C44.4379053,189.24 40.1179053,171.24 40.1179053,151.92 C40.1179053,116.28 70.5979053,87.24 108.037905,87.24 C145.477905,87.24 175.957905,116.28 175.957905,151.92 C175.957905,155.28 173.317905,157.92 169.957905,157.92 C166.597905,157.92 163.957905,155.28 163.957905,151.92 C163.957905,122.88 138.877905,99.24 108.037905,99.24 C77.1979053,99.24 52.1179053,122.88 52.1179053,151.92 C52.1179053,169.2 55.9579053,185.16 63.2779053,198.12 C70.9579053,211.92 76.2379053,217.8 85.4779053,227.16 C87.7579053,229.56 87.7579053,233.28 85.4779053,235.68 C84.1579053,236.88 82.5979053,237.48 81.0379053,237.48 Z" id="Path"></path>
                    <path d="M167.077905,215.28 C152.797905,215.28 140.197905,211.68 129.877905,204.6 C111.997905,192.48 101.317905,172.8 101.317905,151.92 C101.317905,148.56 103.957905,145.92 107.317905,145.92 C110.677905,145.92 113.317905,148.56 113.317905,151.92 C113.317905,168.84 121.957905,184.8 136.597905,194.64 C145.117905,200.4 155.077905,203.16 167.077905,203.16 C169.957905,203.16 174.757905,202.8 179.557905,201.96 C182.797905,201.36 185.917905,203.52 186.517905,206.88 C187.117905,210.12 184.957905,213.24 181.597905,213.84 C174.757905,215.16 168.757905,215.28 167.077905,215.28 L167.077905,215.28 Z" id="Path"></path>
                    <path d="M142.957905,240 C142.477905,240 141.877905,239.88 141.397905,239.76 C122.317905,234.48 109.837905,227.4 96.7579053,214.56 C79.9579053,197.88 70.7179053,175.68 70.7179053,151.92 C70.7179053,132.48 87.2779053,116.64 107.677905,116.64 C128.077905,116.64 144.637905,132.48 144.637905,151.92 C144.637905,164.76 155.797905,175.2 169.597905,175.2 C183.397905,175.2 194.557905,164.76 194.557905,151.92 C194.557905,106.68 155.557905,69.96 107.557905,69.96 C73.4779053,69.96 42.2779053,88.92 28.2379053,118.32 C23.5579053,128.04 21.1579053,139.44 21.1579053,151.92 C21.1579053,161.28 21.9979053,176.04 29.1979053,195.24 C30.3979053,198.36 28.8379053,201.84 25.7179053,202.92 C22.5979053,204.12 19.1179053,202.44 18.0379053,199.44 C12.1579053,183.72 9.27790526,168.12 9.27790526,151.92 C9.27790526,137.52 12.0379053,124.44 17.4379053,113.04 C33.3979053,79.56 68.7979053,57.84 107.557905,57.84 C162.157905,57.84 206.557905,99.96 206.557905,151.8 C206.557905,171.24 189.997905,187.08 169.597905,187.08 C149.197905,187.08 132.637905,171.24 132.637905,151.8 C132.637905,138.96 121.477905,128.52 107.677905,128.52 C93.8779053,128.52 82.7179053,138.96 82.7179053,151.8 C82.7179053,172.32 90.6379053,191.52 105.157905,205.92 C116.557905,217.2 127.477905,223.44 144.397905,228.12 C147.637905,228.96 149.437905,232.32 148.597905,235.44 C147.997905,238.2 145.477905,240 142.957905,240 L142.957905,240 Z" id="Path"></path>
                </g>
            </g>
        </g>
    </g>
</svg>